<?xml version="1.0" encoding="utf-8" standalone="no"?>
<!DOCTYPE svg PUBLIC "-//W3C//DTD SVG 1.1//EN"
  "http://www.w3.org/Graphics/SVG/1.1/DTD/svg11.dtd">
<svg xmlns:xlink="http://www.w3.org/1999/xlink" width="1000.58pt" height="320.838437pt" viewBox="0 0 1000.58 320.838437" xmlns="http://www.w3.org/2000/svg" version="1.1">
 <metadata>
  <rdf:RDF xmlns:dc="http://purl.org/dc/elements/1.1/" xmlns:cc="http://creativecommons.org/ns#" xmlns:rdf="http://www.w3.org/1999/02/22-rdf-syntax-ns#">
   <cc:Work>
    <dc:type rdf:resource="http://purl.org/dc/dcmitype/StillImage"/>
    <dc:format>image/svg+xml</dc:format>
    <dc:creator>
     <cc:Agent>
      <dc:title>Matplotlib v3.11.1, https://matplotlib.org/</dc:title>
     </cc:Agent>
    </dc:creator>
   </cc:Work>
  </rdf:RDF>
 </metadata>
 <defs>
  <style type="text/css">*{stroke-linejoin: round; stroke-linecap: butt}</style>
 </defs>
 <g id="figure_1">
  <g id="patch_1">
   <path d="M 0 320.838437 
L 1000.58 320.838437 
L 1000.58 0 
L 0 0 
z
" style="fill: #ffffff"/>
  </g>
  <g id="axes_1">
   <g id="patch_2">
    <path d="M 50.002344 284.335312 
L 328.1 284.335312 
L 328.1 49.922812 
L 50.002344 49.922812 
z
" style="fill: #ffffff"/>
   </g>
   <g id="matplotlib.axis_1">
    <g id="xtick_1">
     <g id="line2d_1">
      <path d="M 100.249438 284.335312 
L 100.249438 49.922812 
" clip-path="url(#pd754223ec3)" style="fill: none; stroke: #cccccc; stroke-width: 0.8; stroke-linecap: round"/>
     </g>
     <g id="line2d_2"/>
     <g id="text_1">
      <!-- $\mathdefault{10^{-2}}$ -->
      <g style="fill: #262626" transform="translate(88.499438 297.235312) scale(0.1 -0.1)">
       <defs>
        <path id="DejaVuSans-14" d="M 794 531 
L 1825 531 
L 1825 4091 
L 703 3866 
L 703 4441 
L 1819 4666 
L 2450 4666 
L 2450 531 
L 3481 531 
L 3481 0 
L 794 0 
L 794 531 
z
" transform="scale(0.015625)"/>
        <path id="DejaVuSans-13" d="M 2034 4250 
Q 1547 4250 1301 3770 
Q 1056 3291 1056 2328 
Q 1056 1369 1301 889 
Q 1547 409 2034 409 
Q 2525 409 2770 889 
Q 3016 1369 3016 2328 
Q 3016 3291 2770 3770 
Q 2525 4250 2034 4250 
z
M 2034 4750 
Q 2819 4750 3233 4129 
Q 3647 3509 3647 2328 
Q 3647 1150 3233 529 
Q 2819 -91 2034 -91 
Q 1250 -91 836 529 
Q 422 1150 422 2328 
Q 422 3509 836 4129 
Q 1250 4750 2034 4750 
z
" transform="scale(0.015625)"/>
        <path id="DejaVuSans-c9c" d="M 678 2272 
L 4684 2272 
L 4684 1741 
L 678 1741 
L 678 2272 
z
" transform="scale(0.015625)"/>
        <path id="DejaVuSans-15" d="M 1228 531 
L 3431 531 
L 3431 0 
L 469 0 
L 469 531 
Q 828 903 1448 1529 
Q 2069 2156 2228 2338 
Q 2531 2678 2651 2914 
Q 2772 3150 2772 3378 
Q 2772 3750 2511 3984 
Q 2250 4219 1831 4219 
Q 1534 4219 1204 4116 
Q 875 4013 500 3803 
L 500 4441 
Q 881 4594 1212 4672 
Q 1544 4750 1819 4750 
Q 2544 4750 2975 4387 
Q 3406 4025 3406 3419 
Q 3406 3131 3298 2873 
Q 3191 2616 2906 2266 
Q 2828 2175 2409 1742 
Q 1991 1309 1228 531 
z
" transform="scale(0.015625)"/>
       </defs>
       <use xlink:href="#DejaVuSans-14" transform="translate(0 0.746875)"/>
       <use xlink:href="#DejaVuSans-13" transform="translate(63.623047 0.746875)"/>
       <use xlink:href="#DejaVuSans-c9c" transform="translate(128.203125 42.046875) scale(0.7)"/>
       <use xlink:href="#DejaVuSans-15" transform="translate(186.855469 42.046875) scale(0.7)"/>
      </g>
     </g>
    </g>
    <g id="xtick_2">
     <g id="line2d_3">
      <path d="M 154.051878 284.335312 
L 154.051878 49.922812 
" clip-path="url(#pd754223ec3)" style="fill: none; stroke: #cccccc; stroke-width: 0.8; stroke-linecap: round"/>
     </g>
     <g id="line2d_4"/>
     <g id="text_2">
      <!-- $\mathdefault{10^{-1}}$ -->
      <g style="fill: #262626" transform="translate(142.301878 297.135312) scale(0.1 -0.1)">
       <use xlink:href="#DejaVuSans-14" transform="translate(0 0.665625)"/>
       <use xlink:href="#DejaVuSans-13" transform="translate(63.623047 0.665625)"/>
       <use xlink:href="#DejaVuSans-c9c" transform="translate(128.203125 41.965625) scale(0.7)"/>
       <use xlink:href="#DejaVuSans-14" transform="translate(186.855469 41.965625) scale(0.7)"/>
      </g>
     </g>
    </g>
    <g id="xtick_3">
     <g id="line2d_5">
      <path d="M 207.854318 284.335312 
L 207.854318 49.922812 
" clip-path="url(#pd754223ec3)" style="fill: none; stroke: #cccccc; stroke-width: 0.8; stroke-linecap: round"/>
     </g>
     <g id="line2d_6"/>
     <g id="text_3">
      <!-- $\mathdefault{10^{0}}$ -->
      <g style="fill: #262626" transform="translate(199.054318 297.235312) scale(0.1 -0.1)">
       <use xlink:href="#DejaVuSans-14" transform="translate(0 0.746875)"/>
       <use xlink:href="#DejaVuSans-13" transform="translate(63.623047 0.746875)"/>
       <use xlink:href="#DejaVuSans-13" transform="translate(128.203125 42.046875) scale(0.7)"/>
      </g>
     </g>
    </g>
    <g id="xtick_4">
     <g id="line2d_7">
      <path d="M 261.656758 284.335312 
L 261.656758 49.922812 
" clip-path="url(#pd754223ec3)" style="fill: none; stroke: #cccccc; stroke-width: 0.8; stroke-linecap: round"/>
     </g>
     <g id="line2d_8"/>
     <g id="text_4">
      <!-- $\mathdefault{10^{1}}$ -->
      <g style="fill: #262626" transform="translate(252.856758 297.135312) scale(0.1 -0.1)">
       <use xlink:href="#DejaVuSans-14" transform="translate(0 0.665625)"/>
       <use xlink:href="#DejaVuSans-13" transform="translate(63.623047 0.665625)"/>
       <use xlink:href="#DejaVuSans-14" transform="translate(128.203125 41.965625) scale(0.7)"/>
      </g>
     </g>
    </g>
    <g id="xtick_5">
     <g id="line2d_9">
      <path d="M 315.459197 284.335312 
L 315.459197 49.922812 
" clip-path="url(#pd754223ec3)" style="fill: none; stroke: #cccccc; stroke-width: 0.8; stroke-linecap: round"/>
     </g>
     <g id="line2d_10"/>
     <g id="text_5">
      <!-- $\mathdefault{10^{2}}$ -->
      <g style="fill: #262626" transform="translate(306.659197 297.235312) scale(0.1 -0.1)">
       <use xlink:href="#DejaVuSans-14" transform="translate(0 0.746875)"/>
       <use xlink:href="#DejaVuSans-13" transform="translate(63.623047 0.746875)"/>
       <use xlink:href="#DejaVuSans-15" transform="translate(128.203125 42.046875) scale(0.7)"/>
      </g>
     </g>
    </g>
    <g id="xtick_6">
     <g id="line2d_11"/>
    </g>
    <g id="xtick_7">
     <g id="line2d_12"/>
    </g>
    <g id="xtick_8">
     <g id="line2d_13"/>
    </g>
    <g id="xtick_9">
     <g id="line2d_14"/>
    </g>
    <g id="xtick_10">
     <g id="line2d_15"/>
    </g>
    <g id="xtick_11">
     <g id="line2d_16"/>
    </g>
    <g id="xtick_12">
     <g id="line2d_17"/>
    </g>
    <g id="xtick_13">
     <g id="line2d_18"/>
    </g>
    <g id="xtick_14">
     <g id="line2d_19"/>
    </g>
    <g id="xtick_15">
     <g id="line2d_20"/>
    </g>
    <g id="xtick_16">
     <g id="line2d_21"/>
    </g>
    <g id="xtick_17">
     <g id="line2d_22"/>
    </g>
    <g id="xtick_18">
     <g id="line2d_23"/>
    </g>
    <g id="xtick_19">
     <g id="line2d_24"/>
    </g>
    <g id="xtick_20">
     <g id="line2d_25"/>
    </g>
    <g id="xtick_21">
     <g id="line2d_26"/>
    </g>
    <g id="xtick_22">
     <g id="line2d_27"/>
    </g>
    <g id="xtick_23">
     <g id="line2d_28"/>
    </g>
    <g id="xtick_24">
     <g id="line2d_29"/>
    </g>
    <g id="xtick_25">
     <g id="line2d_30"/>
    </g>
    <g id="xtick_26">
     <g id="line2d_31"/>
    </g>
    <g id="xtick_27">
     <g id="line2d_32"/>
    </g>
    <g id="xtick_28">
     <g id="line2d_33"/>
    </g>
    <g id="xtick_29">
     <g id="line2d_34"/>
    </g>
    <g id="xtick_30">
     <g id="line2d_35"/>
    </g>
    <g id="xtick_31">
     <g id="line2d_36"/>
    </g>
    <g id="xtick_32">
     <g id="line2d_37"/>
    </g>
    <g id="xtick_33">
     <g id="line2d_38"/>
    </g>
    <g id="xtick_34">
     <g id="line2d_39"/>
    </g>
    <g id="xtick_35">
     <g id="line2d_40"/>
    </g>
    <g id="xtick_36">
     <g id="line2d_41"/>
    </g>
    <g id="xtick_37">
     <g id="line2d_42"/>
    </g>
    <g id="xtick_38">
     <g id="line2d_43"/>
    </g>
    <g id="xtick_39">
     <g id="line2d_44"/>
    </g>
    <g id="xtick_40">
     <g id="line2d_45"/>
    </g>
    <g id="xtick_41">
     <g id="line2d_46"/>
    </g>
    <g id="xtick_42">
     <g id="line2d_47"/>
    </g>
    <g id="xtick_43">
     <g id="line2d_48"/>
    </g>
    <g id="xtick_44">
     <g id="line2d_49"/>
    </g>
    <g id="xtick_45">
     <g id="line2d_50"/>
    </g>
    <g id="text_6">
     <!-- On-axis saturation per beam -->
     <g style="fill: #262626" transform="translate(117.372266 311.236094) scale(0.1 -0.1)">
      <defs>
       <path id="DejaVuSans-32" d="M 2522 4238 
Q 1834 4238 1429 3725 
Q 1025 3213 1025 2328 
Q 1025 1447 1429 934 
Q 1834 422 2522 422 
Q 3209 422 3611 934 
Q 4013 1447 4013 2328 
Q 4013 3213 3611 3725 
Q 3209 4238 2522 4238 
z
M 2522 4750 
Q 3503 4750 4090 4092 
Q 4678 3434 4678 2328 
Q 4678 1225 4090 567 
Q 3503 -91 2522 -91 
Q 1538 -91 948 565 
Q 359 1222 359 2328 
Q 359 3434 948 4092 
Q 1538 4750 2522 4750 
z
" transform="scale(0.015625)"/>
       <path id="DejaVuSans-51" d="M 3513 2113 
L 3513 0 
L 2938 0 
L 2938 2094 
Q 2938 2591 2744 2837 
Q 2550 3084 2163 3084 
Q 1697 3084 1428 2787 
Q 1159 2491 1159 1978 
L 1159 0 
L 581 0 
L 581 3500 
L 1159 3500 
L 1159 2956 
Q 1366 3272 1645 3428 
Q 1925 3584 2291 3584 
Q 2894 3584 3203 3211 
Q 3513 2838 3513 2113 
z
" transform="scale(0.015625)"/>
       <path id="DejaVuSans-10" d="M 313 2009 
L 1997 2009 
L 1997 1497 
L 313 1497 
L 313 2009 
z
" transform="scale(0.015625)"/>
       <path id="DejaVuSans-44" d="M 2194 1759 
Q 1497 1759 1228 1600 
Q 959 1441 959 1056 
Q 959 750 1161 570 
Q 1363 391 1709 391 
Q 2188 391 2477 730 
Q 2766 1069 2766 1631 
L 2766 1759 
L 2194 1759 
z
M 3341 1997 
L 3341 0 
L 2766 0 
L 2766 531 
Q 2569 213 2275 61 
Q 1981 -91 1556 -91 
Q 1019 -91 701 211 
Q 384 513 384 1019 
Q 384 1609 779 1909 
Q 1175 2209 1959 2209 
L 2766 2209 
L 2766 2266 
Q 2766 2663 2505 2880 
Q 2244 3097 1772 3097 
Q 1472 3097 1187 3025 
Q 903 2953 641 2809 
L 641 3341 
Q 956 3463 1253 3523 
Q 1550 3584 1831 3584 
Q 2591 3584 2966 3190 
Q 3341 2797 3341 1997 
z
" transform="scale(0.015625)"/>
       <path id="DejaVuSans-5b" d="M 3513 3500 
L 2247 1797 
L 3578 0 
L 2900 0 
L 1881 1375 
L 863 0 
L 184 0 
L 1544 1831 
L 300 3500 
L 978 3500 
L 1906 2253 
L 2834 3500 
L 3513 3500 
z
" transform="scale(0.015625)"/>
       <path id="DejaVuSans-4c" d="M 603 3500 
L 1178 3500 
L 1178 0 
L 603 0 
L 603 3500 
z
M 603 4863 
L 1178 4863 
L 1178 4134 
L 603 4134 
L 603 4863 
z
" transform="scale(0.015625)"/>
       <path id="DejaVuSans-56" d="M 2834 3397 
L 2834 2853 
Q 2591 2978 2328 3040 
Q 2066 3103 1784 3103 
Q 1356 3103 1142 2972 
Q 928 2841 928 2578 
Q 928 2378 1081 2264 
Q 1234 2150 1697 2047 
L 1894 2003 
Q 2506 1872 2764 1633 
Q 3022 1394 3022 966 
Q 3022 478 2636 193 
Q 2250 -91 1575 -91 
Q 1294 -91 989 -36 
Q 684 19 347 128 
L 347 722 
Q 666 556 975 473 
Q 1284 391 1588 391 
Q 1994 391 2212 530 
Q 2431 669 2431 922 
Q 2431 1156 2273 1281 
Q 2116 1406 1581 1522 
L 1381 1569 
Q 847 1681 609 1914 
Q 372 2147 372 2553 
Q 372 3047 722 3315 
Q 1072 3584 1716 3584 
Q 2034 3584 2315 3537 
Q 2597 3491 2834 3397 
z
" transform="scale(0.015625)"/>
       <path id="DejaVuSans-3" transform="scale(0.015625)"/>
       <path id="DejaVuSans-57" d="M 1172 4494 
L 1172 3500 
L 2356 3500 
L 2356 3053 
L 1172 3053 
L 1172 1153 
Q 1172 725 1289 603 
Q 1406 481 1766 481 
L 2356 481 
L 2356 0 
L 1766 0 
Q 1100 0 847 248 
Q 594 497 594 1153 
L 594 3053 
L 172 3053 
L 172 3500 
L 594 3500 
L 594 4494 
L 1172 4494 
z
" transform="scale(0.015625)"/>
       <path id="DejaVuSans-58" d="M 544 1381 
L 544 3500 
L 1119 3500 
L 1119 1403 
Q 1119 906 1312 657 
Q 1506 409 1894 409 
Q 2359 409 2629 706 
Q 2900 1003 2900 1516 
L 2900 3500 
L 3475 3500 
L 3475 0 
L 2900 0 
L 2900 538 
Q 2691 219 2414 64 
Q 2138 -91 1772 -91 
Q 1169 -91 856 284 
Q 544 659 544 1381 
z
M 1991 3584 
L 1991 3584 
z
" transform="scale(0.015625)"/>
       <path id="DejaVuSans-55" d="M 2631 2963 
Q 2534 3019 2420 3045 
Q 2306 3072 2169 3072 
Q 1681 3072 1420 2755 
Q 1159 2438 1159 1844 
L 1159 0 
L 581 0 
L 581 3500 
L 1159 3500 
L 1159 2956 
Q 1341 3275 1631 3429 
Q 1922 3584 2338 3584 
Q 2397 3584 2469 3576 
Q 2541 3569 2628 3553 
L 2631 2963 
z
" transform="scale(0.015625)"/>
       <path id="DejaVuSans-52" d="M 1959 3097 
Q 1497 3097 1228 2736 
Q 959 2375 959 1747 
Q 959 1119 1226 758 
Q 1494 397 1959 397 
Q 2419 397 2687 759 
Q 2956 1122 2956 1747 
Q 2956 2369 2687 2733 
Q 2419 3097 1959 3097 
z
M 1959 3584 
Q 2709 3584 3137 3096 
Q 3566 2609 3566 1747 
Q 3566 888 3137 398 
Q 2709 -91 1959 -91 
Q 1206 -91 779 398 
Q 353 888 353 1747 
Q 353 2609 779 3096 
Q 1206 3584 1959 3584 
z
" transform="scale(0.015625)"/>
       <path id="DejaVuSans-53" d="M 1159 525 
L 1159 -1331 
L 581 -1331 
L 581 3500 
L 1159 3500 
L 1159 2969 
Q 1341 3281 1617 3432 
Q 1894 3584 2278 3584 
Q 2916 3584 3314 3078 
Q 3713 2572 3713 1747 
Q 3713 922 3314 415 
Q 2916 -91 2278 -91 
Q 1894 -91 1617 61 
Q 1341 213 1159 525 
z
M 3116 1747 
Q 3116 2381 2855 2742 
Q 2594 3103 2138 3103 
Q 1681 3103 1420 2742 
Q 1159 2381 1159 1747 
Q 1159 1113 1420 752 
Q 1681 391 2138 391 
Q 2594 391 2855 752 
Q 3116 1113 3116 1747 
z
" transform="scale(0.015625)"/>
       <path id="DejaVuSans-48" d="M 3597 1894 
L 3597 1613 
L 953 1613 
Q 991 1019 1311 708 
Q 1631 397 2203 397 
Q 2534 397 2845 478 
Q 3156 559 3463 722 
L 3463 178 
Q 3153 47 2828 -22 
Q 2503 -91 2169 -91 
Q 1331 -91 842 396 
Q 353 884 353 1716 
Q 353 2575 817 3079 
Q 1281 3584 2069 3584 
Q 2775 3584 3186 3129 
Q 3597 2675 3597 1894 
z
M 3022 2063 
Q 3016 2534 2758 2815 
Q 2500 3097 2075 3097 
Q 1594 3097 1305 2825 
Q 1016 2553 972 2059 
L 3022 2063 
z
" transform="scale(0.015625)"/>
       <path id="DejaVuSans-45" d="M 3116 1747 
Q 3116 2381 2855 2742 
Q 2594 3103 2138 3103 
Q 1681 3103 1420 2742 
Q 1159 2381 1159 1747 
Q 1159 1113 1420 752 
Q 1681 391 2138 391 
Q 2594 391 2855 752 
Q 3116 1113 3116 1747 
z
M 1159 2969 
Q 1341 3281 1617 3432 
Q 1894 3584 2278 3584 
Q 2916 3584 3314 3078 
Q 3713 2572 3713 1747 
Q 3713 922 3314 415 
Q 2916 -91 2278 -91 
Q 1894 -91 1617 61 
Q 1341 213 1159 525 
L 1159 0 
L 581 0 
L 581 4863 
L 1159 4863 
L 1159 2969 
z
" transform="scale(0.015625)"/>
       <path id="DejaVuSans-50" d="M 3328 2828 
Q 3544 3216 3844 3400 
Q 4144 3584 4550 3584 
Q 5097 3584 5394 3201 
Q 5691 2819 5691 2113 
L 5691 0 
L 5113 0 
L 5113 2094 
Q 5113 2597 4934 2840 
Q 4756 3084 4391 3084 
Q 3944 3084 3684 2787 
Q 3425 2491 3425 1978 
L 3425 0 
L 2847 0 
L 2847 2094 
Q 2847 2600 2669 2842 
Q 2491 3084 2119 3084 
Q 1678 3084 1418 2786 
Q 1159 2488 1159 1978 
L 1159 0 
L 581 0 
L 581 3500 
L 1159 3500 
L 1159 2956 
Q 1356 3278 1631 3431 
Q 1906 3584 2284 3584 
Q 2666 3584 2933 3390 
Q 3200 3197 3328 2828 
z
" transform="scale(0.015625)"/>
      </defs>
      <use xlink:href="#DejaVuSans-32"/>
      <use xlink:href="#DejaVuSans-51" transform="translate(78.71875 0)"/>
      <use xlink:href="#DejaVuSans-10" transform="translate(142.09375 0)"/>
      <use xlink:href="#DejaVuSans-44" transform="translate(178.171875 0)"/>
      <use xlink:href="#DejaVuSans-5b" transform="translate(239.453125 0)"/>
      <use xlink:href="#DejaVuSans-4c" transform="translate(298.640625 0)"/>
      <use xlink:href="#DejaVuSans-56" transform="translate(326.421875 0)"/>
      <use xlink:href="#DejaVuSans-3" transform="translate(378.515625 0)"/>
      <use xlink:href="#DejaVuSans-56" transform="translate(410.296875 0)"/>
      <use xlink:href="#DejaVuSans-44" transform="translate(462.390625 0)"/>
      <use xlink:href="#DejaVuSans-57" transform="translate(523.671875 0)"/>
      <use xlink:href="#DejaVuSans-58" transform="translate(562.875 0)"/>
      <use xlink:href="#DejaVuSans-55" transform="translate(626.25 0)"/>
      <use xlink:href="#DejaVuSans-44" transform="translate(667.359375 0)"/>
      <use xlink:href="#DejaVuSans-57" transform="translate(728.640625 0)"/>
      <use xlink:href="#DejaVuSans-4c" transform="translate(767.84375 0)"/>
      <use xlink:href="#DejaVuSans-52" transform="translate(795.625 0)"/>
      <use xlink:href="#DejaVuSans-51" transform="translate(856.8125 0)"/>
      <use xlink:href="#DejaVuSans-3" transform="translate(920.1875 0)"/>
      <use xlink:href="#DejaVuSans-53" transform="translate(951.96875 0)"/>
      <use xlink:href="#DejaVuSans-48" transform="translate(1015.453125 0)"/>
      <use xlink:href="#DejaVuSans-55" transform="translate(1076.984375 0)"/>
      <use xlink:href="#DejaVuSans-3" transform="translate(1118.09375 0)"/>
      <use xlink:href="#DejaVuSans-45" transform="translate(1149.875 0)"/>
      <use xlink:href="#DejaVuSans-48" transform="translate(1213.359375 0)"/>
      <use xlink:href="#DejaVuSans-44" transform="translate(1274.890625 0)"/>
      <use xlink:href="#DejaVuSans-50" transform="translate(1336.171875 0)"/>
     </g>
    </g>
   </g>
   <g id="matplotlib.axis_2">
    <g id="ytick_1">
     <g id="line2d_51">
      <path d="M 50.002344 274.567532 
L 328.1 274.567532 
" clip-path="url(#pd754223ec3)" style="fill: none; stroke: #cccccc; stroke-width: 0.8; stroke-linecap: round"/>
     </g>
     <g id="line2d_52"/>
     <g id="text_7">
      <!-- $\mathdefault{10^{-3}}$ -->
      <g style="fill: #262626" transform="translate(23.002344 279.267532) scale(0.1 -0.1)">
       <defs>
        <path id="DejaVuSans-16" d="M 2597 2516 
Q 3050 2419 3304 2112 
Q 3559 1806 3559 1356 
Q 3559 666 3084 287 
Q 2609 -91 1734 -91 
Q 1441 -91 1130 -33 
Q 819 25 488 141 
L 488 750 
Q 750 597 1062 519 
Q 1375 441 1716 441 
Q 2309 441 2620 675 
Q 2931 909 2931 1356 
Q 2931 1769 2642 2001 
Q 2353 2234 1838 2234 
L 1294 2234 
L 1294 2753 
L 1863 2753 
Q 2328 2753 2575 2939 
Q 2822 3125 2822 3475 
Q 2822 3834 2567 4026 
Q 2313 4219 1838 4219 
Q 1578 4219 1281 4162 
Q 984 4106 628 3988 
L 628 4550 
Q 988 4650 1302 4700 
Q 1616 4750 1894 4750 
Q 2613 4750 3031 4423 
Q 3450 4097 3450 3541 
Q 3450 3153 3228 2886 
Q 3006 2619 2597 2516 
z
" transform="scale(0.015625)"/>
       </defs>
       <use xlink:href="#DejaVuSans-14" transform="translate(0 0.746875)"/>
       <use xlink:href="#DejaVuSans-13" transform="translate(63.623047 0.746875)"/>
       <use xlink:href="#DejaVuSans-c9c" transform="translate(128.203125 42.046875) scale(0.7)"/>
       <use xlink:href="#DejaVuSans-16" transform="translate(186.855469 42.046875) scale(0.7)"/>
      </g>
     </g>
    </g>
    <g id="ytick_2">
     <g id="line2d_53">
      <path d="M 50.002344 216.078929 
L 328.1 216.078929 
" clip-path="url(#pd754223ec3)" style="fill: none; stroke: #cccccc; stroke-width: 0.8; stroke-linecap: round"/>
     </g>
     <g id="line2d_54"/>
     <g id="text_8">
      <!-- $\mathdefault{10^{-2}}$ -->
      <g style="fill: #262626" transform="translate(23.002344 220.778929) scale(0.1 -0.1)">
       <use xlink:href="#DejaVuSans-14" transform="translate(0 0.746875)"/>
       <use xlink:href="#DejaVuSans-13" transform="translate(63.623047 0.746875)"/>
       <use xlink:href="#DejaVuSans-c9c" transform="translate(128.203125 42.046875) scale(0.7)"/>
       <use xlink:href="#DejaVuSans-15" transform="translate(186.855469 42.046875) scale(0.7)"/>
      </g>
     </g>
    </g>
    <g id="ytick_3">
     <g id="line2d_55">
      <path d="M 50.002344 157.590325 
L 328.1 157.590325 
" clip-path="url(#pd754223ec3)" style="fill: none; stroke: #cccccc; stroke-width: 0.8; stroke-linecap: round"/>
     </g>
     <g id="line2d_56"/>
     <g id="text_9">
      <!-- $\mathdefault{10^{-1}}$ -->
      <g style="fill: #262626" transform="translate(23.002344 162.240325) scale(0.1 -0.1)">
       <use xlink:href="#DejaVuSans-14" transform="translate(0 0.665625)"/>
       <use xlink:href="#DejaVuSans-13" transform="translate(63.623047 0.665625)"/>
       <use xlink:href="#DejaVuSans-c9c" transform="translate(128.203125 41.965625) scale(0.7)"/>
       <use xlink:href="#DejaVuSans-14" transform="translate(186.855469 41.965625) scale(0.7)"/>
      </g>
     </g>
    </g>
    <g id="ytick_4">
     <g id="line2d_57">
      <path d="M 50.002344 99.101722 
L 328.1 99.101722 
" clip-path="url(#pd754223ec3)" style="fill: none; stroke: #cccccc; stroke-width: 0.8; stroke-linecap: round"/>
     </g>
     <g id="line2d_58"/>
     <g id="text_10">
      <!-- $\mathdefault{10^{0}}$ -->
      <g style="fill: #262626" transform="translate(28.902344 103.801722) scale(0.1 -0.1)">
       <use xlink:href="#DejaVuSans-14" transform="translate(0 0.746875)"/>
       <use xlink:href="#DejaVuSans-13" transform="translate(63.623047 0.746875)"/>
       <use xlink:href="#DejaVuSans-13" transform="translate(128.203125 42.046875) scale(0.7)"/>
      </g>
     </g>
    </g>
    <g id="ytick_5">
     <g id="line2d_59"/>
    </g>
    <g id="ytick_6">
     <g id="line2d_60"/>
    </g>
    <g id="ytick_7">
     <g id="line2d_61"/>
    </g>
    <g id="ytick_8">
     <g id="line2d_62"/>
    </g>
    <g id="ytick_9">
     <g id="line2d_63"/>
    </g>
    <g id="ytick_10">
     <g id="line2d_64"/>
    </g>
    <g id="ytick_11">
     <g id="line2d_65"/>
    </g>
    <g id="ytick_12">
     <g id="line2d_66"/>
    </g>
    <g id="ytick_13">
     <g id="line2d_67"/>
    </g>
    <g id="ytick_14">
     <g id="line2d_68"/>
    </g>
    <g id="ytick_15">
     <g id="line2d_69"/>
    </g>
    <g id="ytick_16">
     <g id="line2d_70"/>
    </g>
    <g id="ytick_17">
     <g id="line2d_71"/>
    </g>
    <g id="ytick_18">
     <g id="line2d_72"/>
    </g>
    <g id="ytick_19">
     <g id="line2d_73"/>
    </g>
    <g id="ytick_20">
     <g id="line2d_74"/>
    </g>
    <g id="ytick_21">
     <g id="line2d_75"/>
    </g>
    <g id="ytick_22">
     <g id="line2d_76"/>
    </g>
    <g id="ytick_23">
     <g id="line2d_77"/>
    </g>
    <g id="ytick_24">
     <g id="line2d_78"/>
    </g>
    <g id="ytick_25">
     <g id="line2d_79"/>
    </g>
    <g id="ytick_26">
     <g id="line2d_80"/>
    </g>
    <g id="ytick_27">
     <g id="line2d_81"/>
    </g>
    <g id="ytick_28">
     <g id="line2d_82"/>
    </g>
    <g id="ytick_29">
     <g id="line2d_83"/>
    </g>
    <g id="ytick_30">
     <g id="line2d_84"/>
    </g>
    <g id="ytick_31">
     <g id="line2d_85"/>
    </g>
    <g id="ytick_32">
     <g id="line2d_86"/>
    </g>
    <g id="ytick_33">
     <g id="line2d_87"/>
    </g>
    <g id="ytick_34">
     <g id="line2d_88"/>
    </g>
    <g id="ytick_35">
     <g id="line2d_89"/>
    </g>
    <g id="ytick_36">
     <g id="line2d_90"/>
    </g>
    <g id="text_11">
     <!-- β ($10^{-22}$ kg/s) -->
     <g style="fill: #262626" transform="translate(16.6 201.729062) rotate(-90) scale(0.1 -0.1)">
      <defs>
       <path id="DejaVuSans-346" d="M 1178 216 
L 1178 -1331 
L 600 -1331 
L 600 3478 
Q 600 4903 1931 4903 
Q 3288 4903 3288 3700 
Q 3288 2844 2750 2531 
Q 3625 2250 3625 1416 
Q 3625 -66 2119 -66 
Q 1456 -66 1178 216 
z
M 1178 966 
Q 1525 425 2141 425 
Q 3041 425 3041 1406 
Q 3041 2288 1591 2219 
L 1591 2750 
Q 2725 2750 2725 3750 
Q 2725 4434 1994 4434 
Q 1178 4434 1178 3459 
L 1178 966 
z
" transform="scale(0.015625)"/>
       <path id="DejaVuSans-b" d="M 1984 4856 
Q 1566 4138 1362 3434 
Q 1159 2731 1159 2009 
Q 1159 1288 1364 580 
Q 1569 -128 1984 -844 
L 1484 -844 
Q 1016 -109 783 600 
Q 550 1309 550 2009 
Q 550 2706 781 3412 
Q 1013 4119 1484 4856 
L 1984 4856 
z
" transform="scale(0.015625)"/>
       <path id="DejaVuSans-4e" d="M 581 4863 
L 1159 4863 
L 1159 1991 
L 2875 3500 
L 3609 3500 
L 1753 1863 
L 3688 0 
L 2938 0 
L 1159 1709 
L 1159 0 
L 581 0 
L 581 4863 
z
" transform="scale(0.015625)"/>
       <path id="DejaVuSans-4a" d="M 2906 1791 
Q 2906 2416 2648 2759 
Q 2391 3103 1925 3103 
Q 1463 3103 1205 2759 
Q 947 2416 947 1791 
Q 947 1169 1205 825 
Q 1463 481 1925 481 
Q 2391 481 2648 825 
Q 2906 1169 2906 1791 
z
M 3481 434 
Q 3481 -459 3084 -895 
Q 2688 -1331 1869 -1331 
Q 1566 -1331 1297 -1286 
Q 1028 -1241 775 -1147 
L 775 -588 
Q 1028 -725 1275 -790 
Q 1522 -856 1778 -856 
Q 2344 -856 2625 -561 
Q 2906 -266 2906 331 
L 2906 616 
Q 2728 306 2450 153 
Q 2172 0 1784 0 
Q 1141 0 747 490 
Q 353 981 353 1791 
Q 353 2603 747 3093 
Q 1141 3584 1784 3584 
Q 2172 3584 2450 3431 
Q 2728 3278 2906 2969 
L 2906 3500 
L 3481 3500 
L 3481 434 
z
" transform="scale(0.015625)"/>
       <path id="DejaVuSans-12" d="M 1625 4666 
L 2156 4666 
L 531 -594 
L 0 -594 
L 1625 4666 
z
" transform="scale(0.015625)"/>
       <path id="DejaVuSans-c" d="M 513 4856 
L 1013 4856 
Q 1481 4119 1714 3412 
Q 1947 2706 1947 2009 
Q 1947 1309 1714 600 
Q 1481 -109 1013 -844 
L 513 -844 
Q 928 -128 1133 580 
Q 1338 1288 1338 2009 
Q 1338 2731 1133 3434 
Q 928 4138 513 4856 
z
" transform="scale(0.015625)"/>
      </defs>
      <use xlink:href="#DejaVuSans-346" transform="translate(0 0.746875)"/>
      <use xlink:href="#DejaVuSans-3" transform="translate(63.818359 0.746875)"/>
      <use xlink:href="#DejaVuSans-b" transform="translate(95.605469 0.746875)"/>
      <use xlink:href="#DejaVuSans-14" transform="translate(134.619141 0.746875)"/>
      <use xlink:href="#DejaVuSans-13" transform="translate(198.242188 0.746875)"/>
      <use xlink:href="#DejaVuSans-c9c" transform="translate(262.822266 42.046875) scale(0.7)"/>
      <use xlink:href="#DejaVuSans-15" transform="translate(321.474609 42.046875) scale(0.7)"/>
      <use xlink:href="#DejaVuSans-15" transform="translate(366.010742 42.046875) scale(0.7)"/>
      <use xlink:href="#DejaVuSans-3" transform="translate(413.28125 0.746875)"/>
      <use xlink:href="#DejaVuSans-4e" transform="translate(445.068359 0.746875)"/>
      <use xlink:href="#DejaVuSans-4a" transform="translate(502.978516 0.746875)"/>
      <use xlink:href="#DejaVuSans-12" transform="translate(566.455078 0.746875)"/>
      <use xlink:href="#DejaVuSans-56" transform="translate(600.146484 0.746875)"/>
      <use xlink:href="#DejaVuSans-c" transform="translate(652.246094 0.746875)"/>
     </g>
    </g>
   </g>
   <g id="line2d_91">
    <path d="M 62.643146 178.700267 
L 65.483776 175.627941 
L 68.324406 172.557641 
L 71.165036 169.489628 
L 74.005665 166.424196 
L 76.846295 163.361675 
L 79.686925 160.302438 
L 82.527555 157.246905 
L 85.368185 154.195551 
L 88.208814 151.148908 
L 91.049444 148.107577 
L 93.890074 145.072234 
L 96.730704 142.043637 
L 99.571334 139.022642 
L 102.411963 136.010209 
L 105.252593 133.007415 
L 108.093223 130.01547 
L 110.933853 127.03573 
L 113.774482 124.069714 
L 116.615112 121.119121 
L 119.455742 118.185851 
L 122.296372 115.272024 
L 125.137002 112.380002 
L 127.977631 109.512415 
L 130.818261 106.672181 
L 133.658891 103.862537 
L 136.499521 101.087058 
L 139.340151 98.349687 
L 142.18078 95.65476 
L 145.02141 93.007024 
L 147.86204 90.411661 
L 150.70267 87.874302 
L 153.5433 85.401037 
L 156.383929 82.998416 
L 159.224559 80.673442 
L 162.065189 78.43355 
L 164.905819 76.286576 
L 167.746448 74.240709 
L 170.587078 72.304419 
L 173.427708 70.486375 
L 176.268338 68.79534 
L 179.108968 67.240045 
L 181.949597 65.829049 
L 184.790227 64.570582 
L 187.630857 63.472379 
L 190.471487 62.54151 
L 193.312117 61.784209 
L 196.152746 61.205719 
L 198.993376 60.810153 
L 201.834006 60.600376 
L 204.674636 60.577926 
L 207.515265 60.742968 
L 210.355895 61.094291 
L 213.196525 61.629339 
L 216.037155 62.344291 
L 218.877785 63.234162 
L 221.718414 64.29294 
L 224.559044 65.513741 
L 227.399674 66.888973 
L 230.240304 68.410509 
L 233.080934 70.069855 
L 235.921563 71.858307 
L 238.762193 73.767098 
L 241.602823 75.787526 
L 244.443453 77.911063 
L 247.284083 80.129449 
L 250.124712 82.434757 
L 252.965342 84.819453 
L 255.805972 87.276428 
L 258.646602 89.799022 
L 261.487231 92.381035 
L 264.327861 95.016728 
L 267.168491 97.700811 
L 270.009121 100.428436 
L 272.849751 103.195169 
L 275.69038 105.996977 
L 278.53101 108.830198 
L 281.37164 111.691518 
L 284.21227 114.577943 
L 287.0529 117.486777 
L 289.893529 120.415596 
L 292.734159 123.362225 
L 295.574789 126.324713 
L 298.415419 129.301314 
L 301.256049 132.290467 
L 304.096678 135.290781 
L 306.937308 138.30101 
L 309.777938 141.320048 
L 312.618568 144.346907 
L 315.459197 147.380709 
" clip-path="url(#pd754223ec3)" style="fill: none; stroke: #1f77b4; stroke-width: 1.5; stroke-linecap: round"/>
   </g>
   <g id="line2d_92">
    <path d="M 62.643146 223.17843 
L 65.483776 220.095015 
L 68.324406 217.012198 
L 71.165036 213.930057 
L 74.005665 210.848679 
L 76.846295 207.768161 
L 79.686925 204.688616 
L 82.527555 201.610168 
L 85.368185 198.532958 
L 88.208814 195.457147 
L 91.049444 192.382913 
L 93.890074 189.310461 
L 96.730704 186.240019 
L 99.571334 183.171846 
L 102.411963 180.106232 
L 105.252593 177.043507 
L 108.093223 173.984039 
L 110.933853 170.928247 
L 113.774482 167.8766 
L 116.615112 164.829626 
L 119.455742 161.787923 
L 122.296372 158.752159 
L 125.137002 155.723089 
L 127.977631 152.701561 
L 130.818261 149.688528 
L 133.658891 146.685058 
L 136.499521 143.692353 
L 139.340151 140.711757 
L 142.18078 137.744779 
L 145.02141 134.793106 
L 147.86204 131.858623 
L 150.70267 128.943435 
L 153.5433 126.049887 
L 156.383929 123.180591 
L 159.224559 120.338445 
L 162.065189 117.526663 
L 164.905819 114.748798 
L 167.746448 112.008768 
L 170.587078 109.31088 
L 173.427708 106.659856 
L 176.268338 104.060847 
L 179.108968 101.519454 
L 181.949597 99.041737 
L 184.790227 96.634214 
L 187.630857 94.30386 
L 190.471487 92.058081 
L 193.312117 89.90469 
L 196.152746 87.851851 
L 198.993376 85.90802 
L 201.834006 84.081856 
L 204.674636 82.382118 
L 207.515265 80.817544 
L 210.355895 79.39671 
L 213.196525 78.127872 
L 216.037155 77.018804 
L 218.877785 76.076623 
L 221.718414 75.307626 
L 224.559044 74.717126 
L 227.399674 74.309314 
L 230.240304 74.087142 
L 233.080934 74.052237 
L 235.921563 74.204855 
L 238.762193 74.543877 
L 241.602823 75.066834 
L 244.443453 75.769986 
L 247.284083 76.648422 
L 250.124712 77.696192 
L 252.965342 78.906466 
L 255.805972 80.271694 
L 258.646602 81.783778 
L 261.487231 83.434244 
L 264.327861 85.214398 
L 267.168491 87.115471 
L 270.009121 89.128755 
L 272.849751 91.245707 
L 275.69038 93.458046 
L 278.53101 95.757823 
L 281.37164 98.137474 
L 284.21227 100.589862 
L 287.0529 103.108297 
L 289.893529 105.686549 
L 292.734159 108.318847 
L 295.574789 110.999874 
L 298.415419 113.724749 
L 301.256049 116.489016 
L 304.096678 119.288614 
L 306.937308 122.119856 
L 309.777938 124.979406 
L 312.618568 127.864251 
L 315.459197 130.771676 
" clip-path="url(#pd754223ec3)" style="fill: none; stroke: #ff7f0e; stroke-width: 1.5; stroke-linecap: round"/>
   </g>
   <g id="line2d_93">
    <path d="M 62.643146 273.680199 
L 65.483776 270.593364 
L 68.324406 267.506686 
L 71.165036 264.420184 
L 74.005665 261.333883 
L 76.846295 258.247807 
L 79.686925 255.161985 
L 82.527555 252.076451 
L 85.368185 248.991242 
L 88.208814 245.9064 
L 91.049444 242.821972 
L 93.890074 239.738011 
L 96.730704 236.654578 
L 99.571334 233.571741 
L 102.411963 230.489577 
L 105.252593 227.408173 
L 108.093223 224.327626 
L 110.933853 221.248047 
L 113.774482 218.169562 
L 116.615112 215.09231 
L 119.455742 212.016451 
L 122.296372 208.942164 
L 125.137002 205.869652 
L 127.977631 202.799142 
L 130.818261 199.730891 
L 133.658891 196.665191 
L 136.499521 193.602367 
L 139.340151 190.542789 
L 142.18078 187.486872 
L 145.02141 184.435083 
L 147.86204 181.387951 
L 150.70267 178.346069 
L 153.5433 175.310103 
L 156.383929 172.280806 
L 159.224559 169.259022 
L 162.065189 166.245701 
L 164.905819 163.241906 
L 167.746448 160.248836 
L 170.587078 157.26783 
L 173.427708 154.30039 
L 176.268338 151.348198 
L 179.108968 148.413132 
L 181.949597 145.49729 
L 184.790227 142.603009 
L 187.630857 139.732892 
L 190.471487 136.889828 
L 193.312117 134.077019 
L 196.152746 131.298007 
L 198.993376 128.5567 
L 201.834006 125.85739 
L 204.674636 123.204785 
L 207.515265 120.604024 
L 210.355895 118.060693 
L 213.196525 115.580835 
L 216.037155 113.170956 
L 218.877785 110.838014 
L 221.718414 108.589405 
L 224.559044 106.432926 
L 227.399674 104.376734 
L 230.240304 102.429274 
L 233.080934 100.599201 
L 235.921563 98.895273 
L 238.762193 97.326232 
L 241.602823 95.900659 
L 244.443453 94.626824 
L 247.284083 93.512518 
L 250.124712 92.564884 
L 252.965342 91.790245 
L 255.805972 91.193951 
L 258.646602 90.780229 
L 261.487231 90.552072 
L 264.327861 90.511151 
L 267.168491 90.657767 
L 270.009121 90.990843 
L 272.849751 91.507955 
L 275.69038 92.205399 
L 278.53101 93.078302 
L 281.37164 94.120744 
L 284.21227 95.325922 
L 287.0529 96.686304 
L 289.893529 98.19381 
L 292.734159 99.839973 
L 295.574789 101.616104 
L 298.415419 103.513436 
L 301.256049 105.523256 
L 304.096678 107.637014 
L 306.937308 109.84642 
L 309.777938 112.143513 
L 312.618568 114.520716 
L 315.459197 116.970878 
" clip-path="url(#pd754223ec3)" style="fill: none; stroke: #2ca02c; stroke-width: 1.5; stroke-linecap: round"/>
   </g>
   <g id="line2d_94">
    <path d="M 62.643146 223.17843 
L 65.483776 220.095015 
L 68.324406 217.012198 
L 71.165036 213.930057 
L 74.005665 210.848679 
L 76.846295 207.768161 
L 79.686925 204.688616 
L 82.527555 201.610168 
L 85.368185 198.532958 
L 88.208814 195.457147 
L 91.049444 192.382913 
L 93.890074 189.310461 
L 96.730704 186.240019 
L 99.571334 183.171846 
L 102.411963 180.106232 
L 105.252593 177.043507 
L 108.093223 173.984039 
L 110.933853 170.928247 
L 113.774482 167.8766 
L 116.615112 164.829626 
L 119.455742 161.787923 
L 122.296372 158.752159 
L 125.137002 155.723089 
L 127.977631 152.701561 
L 130.818261 149.688528 
L 133.658891 146.685058 
L 136.499521 143.692353 
L 139.340151 140.711757 
L 142.18078 137.744779 
L 145.02141 134.793106 
L 147.86204 131.858623 
L 150.70267 128.943435 
L 153.5433 126.049887 
L 156.383929 123.180591 
L 159.224559 120.338445 
L 162.065189 117.526663 
L 164.905819 114.748798 
L 167.746448 112.008768 
L 170.587078 109.31088 
L 173.427708 106.659856 
L 176.268338 104.060847 
L 179.108968 101.519454 
L 181.949597 99.041737 
L 184.790227 96.634214 
L 187.630857 94.30386 
L 190.471487 92.058081 
L 193.312117 89.90469 
L 196.152746 87.851851 
L 198.993376 85.90802 
L 201.834006 84.081856 
L 204.674636 82.382118 
L 207.515265 80.817544 
L 210.355895 79.39671 
L 213.196525 78.127872 
L 216.037155 77.018804 
L 218.877785 76.076623 
L 221.718414 75.307626 
L 224.559044 74.717126 
L 227.399674 74.309314 
L 230.240304 74.087142 
L 233.080934 74.052237 
L 235.921563 74.204855 
L 238.762193 74.543877 
L 241.602823 75.066834 
L 244.443453 75.769986 
L 247.284083 76.648422 
L 250.124712 77.696192 
L 252.965342 78.906466 
L 255.805972 80.271694 
L 258.646602 81.783778 
L 261.487231 83.434244 
L 264.327861 85.214398 
L 267.168491 87.115471 
L 270.009121 89.128755 
L 272.849751 91.245707 
L 275.69038 93.458046 
L 278.53101 95.757823 
L 281.37164 98.137474 
L 284.21227 100.589862 
L 287.0529 103.108297 
L 289.893529 105.686549 
L 292.734159 108.318847 
L 295.574789 110.999874 
L 298.415419 113.724749 
L 301.256049 116.489016 
L 304.096678 119.288614 
L 306.937308 122.119856 
L 309.777938 124.979406 
L 312.618568 127.864251 
L 315.459197 130.771676 
" clip-path="url(#pd754223ec3)" style="fill: none; stroke-dasharray: 5.55,2.4; stroke-dashoffset: 0; stroke: #000000; stroke-width: 1.5"/>
   </g>
   <g id="patch_3">
    <path d="M 50.002344 284.335312 
L 50.002344 49.922812 
" style="fill: none; stroke: #cccccc; stroke-linejoin: miter; stroke-linecap: square"/>
   </g>
   <g id="patch_4">
    <path d="M 328.1 284.335312 
L 328.1 49.922812 
" style="fill: none; stroke: #cccccc; stroke-linejoin: miter; stroke-linecap: square"/>
   </g>
   <g id="patch_5">
    <path d="M 50.002344 284.335312 
L 328.1 284.335312 
" style="fill: none; stroke: #cccccc; stroke-linejoin: miter; stroke-linecap: square"/>
   </g>
   <g id="patch_6">
    <path d="M 50.002344 49.922812 
L 328.1 49.922812 
" style="fill: none; stroke: #cccccc; stroke-linejoin: miter; stroke-linecap: square"/>
   </g>
   <g id="text_12">
    <!-- Velocity-slope damping -->
    <g style="fill: #262626" transform="translate(119.164297 43.922812) scale(0.12 -0.12)">
     <defs>
      <path id="DejaVuSans-39" d="M 1831 0 
L 50 4666 
L 709 4666 
L 2188 738 
L 3669 4666 
L 4325 4666 
L 2547 0 
L 1831 0 
z
" transform="scale(0.015625)"/>
      <path id="DejaVuSans-4f" d="M 603 4863 
L 1178 4863 
L 1178 0 
L 603 0 
L 603 4863 
z
" transform="scale(0.015625)"/>
      <path id="DejaVuSans-46" d="M 3122 3366 
L 3122 2828 
Q 2878 2963 2633 3030 
Q 2388 3097 2138 3097 
Q 1578 3097 1268 2742 
Q 959 2388 959 1747 
Q 959 1106 1268 751 
Q 1578 397 2138 397 
Q 2388 397 2633 464 
Q 2878 531 3122 666 
L 3122 134 
Q 2881 22 2623 -34 
Q 2366 -91 2075 -91 
Q 1284 -91 818 406 
Q 353 903 353 1747 
Q 353 2603 823 3093 
Q 1294 3584 2113 3584 
Q 2378 3584 2631 3529 
Q 2884 3475 3122 3366 
z
" transform="scale(0.015625)"/>
      <path id="DejaVuSans-5c" d="M 2059 -325 
Q 1816 -950 1584 -1140 
Q 1353 -1331 966 -1331 
L 506 -1331 
L 506 -850 
L 844 -850 
Q 1081 -850 1212 -737 
Q 1344 -625 1503 -206 
L 1606 56 
L 191 3500 
L 800 3500 
L 1894 763 
L 2988 3500 
L 3597 3500 
L 2059 -325 
z
" transform="scale(0.015625)"/>
      <path id="DejaVuSans-47" d="M 2906 2969 
L 2906 4863 
L 3481 4863 
L 3481 0 
L 2906 0 
L 2906 525 
Q 2725 213 2448 61 
Q 2172 -91 1784 -91 
Q 1150 -91 751 415 
Q 353 922 353 1747 
Q 353 2572 751 3078 
Q 1150 3584 1784 3584 
Q 2172 3584 2448 3432 
Q 2725 3281 2906 2969 
z
M 947 1747 
Q 947 1113 1208 752 
Q 1469 391 1925 391 
Q 2381 391 2643 752 
Q 2906 1113 2906 1747 
Q 2906 2381 2643 2742 
Q 2381 3103 1925 3103 
Q 1469 3103 1208 2742 
Q 947 2381 947 1747 
z
" transform="scale(0.015625)"/>
     </defs>
     <use xlink:href="#DejaVuSans-39"/>
     <use xlink:href="#DejaVuSans-48" transform="translate(60.640625 0)"/>
     <use xlink:href="#DejaVuSans-4f" transform="translate(122.171875 0)"/>
     <use xlink:href="#DejaVuSans-52" transform="translate(149.953125 0)"/>
     <use xlink:href="#DejaVuSans-46" transform="translate(211.140625 0)"/>
     <use xlink:href="#DejaVuSans-4c" transform="translate(266.125 0)"/>
     <use xlink:href="#DejaVuSans-57" transform="translate(293.90625 0)"/>
     <use xlink:href="#DejaVuSans-5c" transform="translate(333.109375 0)"/>
     <use xlink:href="#DejaVuSans-10" transform="translate(390.546875 0)"/>
     <use xlink:href="#DejaVuSans-56" transform="translate(426.625 0)"/>
     <use xlink:href="#DejaVuSans-4f" transform="translate(478.71875 0)"/>
     <use xlink:href="#DejaVuSans-52" transform="translate(506.5 0)"/>
     <use xlink:href="#DejaVuSans-53" transform="translate(567.6875 0)"/>
     <use xlink:href="#DejaVuSans-48" transform="translate(631.171875 0)"/>
     <use xlink:href="#DejaVuSans-3" transform="translate(692.703125 0)"/>
     <use xlink:href="#DejaVuSans-47" transform="translate(724.484375 0)"/>
     <use xlink:href="#DejaVuSans-44" transform="translate(787.96875 0)"/>
     <use xlink:href="#DejaVuSans-50" transform="translate(849.25 0)"/>
     <use xlink:href="#DejaVuSans-53" transform="translate(946.65625 0)"/>
     <use xlink:href="#DejaVuSans-4c" transform="translate(1010.140625 0)"/>
     <use xlink:href="#DejaVuSans-51" transform="translate(1037.921875 0)"/>
     <use xlink:href="#DejaVuSans-4a" transform="translate(1101.296875 0)"/>
    </g>
   </g>
   <g id="legend_1">
    <g id="line2d_95">
     <path d="M 213.621875 224.430625 
L 223.621875 224.430625 
L 233.621875 224.430625 
" style="fill: none; stroke: #1f77b4; stroke-width: 1.5; stroke-linecap: round"/>
    </g>
    <g id="text_13">
     <!-- δ=-1Γ -->
     <g style="fill: #262626" transform="translate(241.621875 227.930625) scale(0.1 -0.1)">
      <defs>
       <path id="DejaVuSans-348" d="M 3138 4053 
Q 2819 4272 2072 4272 
Q 1281 4272 1281 3906 
Q 1281 3619 2106 3469 
Q 2756 3353 3122 3003 
Q 3566 2581 3566 1716 
Q 3566 888 3138 400 
Q 2709 -91 1959 -91 
Q 1213 -91 781 400 
Q 353 888 353 1747 
Q 353 2384 781 2900 
Q 947 3100 1181 3213 
Q 694 3459 694 3900 
Q 694 4750 2072 4750 
Q 2763 4750 3138 4531 
L 3138 4053 
z
M 1613 3056 
Q 1400 2966 1228 2738 
Q 959 2384 959 1747 
Q 959 1113 1225 756 
Q 1494 397 1959 397 
Q 2419 397 2687 759 
Q 2956 1122 2956 1716 
Q 2956 2338 2672 2638 
Q 2369 2959 1975 2994 
Q 1775 3013 1613 3056 
z
" transform="scale(0.015625)"/>
       <path id="DejaVuSans-20" d="M 678 2906 
L 4684 2906 
L 4684 2381 
L 678 2381 
L 678 2906 
z
M 678 1631 
L 4684 1631 
L 4684 1100 
L 678 1100 
L 678 1631 
z
" transform="scale(0.015625)"/>
       <path id="DejaVuSans-328" d="M 628 0 
L 628 4666 
L 3531 4666 
L 3531 4134 
L 1259 4134 
L 1259 0 
L 628 0 
z
" transform="scale(0.015625)"/>
      </defs>
      <use xlink:href="#DejaVuSans-348"/>
      <use xlink:href="#DejaVuSans-20" transform="translate(61.1875 0)"/>
      <use xlink:href="#DejaVuSans-10" transform="translate(144.984375 0)"/>
      <use xlink:href="#DejaVuSans-14" transform="translate(181.0625 0)"/>
      <use xlink:href="#DejaVuSans-328" transform="translate(244.6875 0)"/>
     </g>
    </g>
    <g id="line2d_96">
     <path d="M 213.621875 239.431406 
L 223.621875 239.431406 
L 233.621875 239.431406 
" style="fill: none; stroke: #ff7f0e; stroke-width: 1.5; stroke-linecap: round"/>
    </g>
    <g id="text_14">
     <!-- δ=-2Γ -->
     <g style="fill: #262626" transform="translate(241.621875 242.931406) scale(0.1 -0.1)">
      <use xlink:href="#DejaVuSans-348"/>
      <use xlink:href="#DejaVuSans-20" transform="translate(61.1875 0)"/>
      <use xlink:href="#DejaVuSans-10" transform="translate(144.984375 0)"/>
      <use xlink:href="#DejaVuSans-15" transform="translate(181.0625 0)"/>
      <use xlink:href="#DejaVuSans-328" transform="translate(244.6875 0)"/>
     </g>
    </g>
    <g id="line2d_97">
     <path d="M 213.621875 254.432187 
L 223.621875 254.432187 
L 233.621875 254.432187 
" style="fill: none; stroke: #2ca02c; stroke-width: 1.5; stroke-linecap: round"/>
    </g>
    <g id="text_15">
     <!-- δ=-4Γ -->
     <g style="fill: #262626" transform="translate(241.621875 257.932187) scale(0.1 -0.1)">
      <defs>
       <path id="DejaVuSans-17" d="M 2419 4116 
L 825 1625 
L 2419 1625 
L 2419 4116 
z
M 2253 4666 
L 3047 4666 
L 3047 1625 
L 3713 1625 
L 3713 1100 
L 3047 1100 
L 3047 0 
L 2419 0 
L 2419 1100 
L 313 1100 
L 313 1709 
L 2253 4666 
z
" transform="scale(0.015625)"/>
      </defs>
      <use xlink:href="#DejaVuSans-348"/>
      <use xlink:href="#DejaVuSans-20" transform="translate(61.1875 0)"/>
      <use xlink:href="#DejaVuSans-10" transform="translate(144.984375 0)"/>
      <use xlink:href="#DejaVuSans-17" transform="translate(181.0625 0)"/>
      <use xlink:href="#DejaVuSans-328" transform="translate(244.6875 0)"/>
     </g>
    </g>
    <g id="line2d_98">
     <path d="M 213.621875 269.432969 
L 223.621875 269.432969 
L 233.621875 269.432969 
" style="fill: none; stroke-dasharray: 5.55,2.4; stroke-dashoffset: 0; stroke: #000000; stroke-width: 1.5"/>
    </g>
    <g id="text_16">
     <!-- analytic δ=−2Γ -->
     <g style="fill: #262626" transform="translate(241.621875 272.932969) scale(0.1 -0.1)">
      <use xlink:href="#DejaVuSans-44"/>
      <use xlink:href="#DejaVuSans-51" transform="translate(61.28125 0)"/>
      <use xlink:href="#DejaVuSans-44" transform="translate(124.65625 0)"/>
      <use xlink:href="#DejaVuSans-4f" transform="translate(185.9375 0)"/>
      <use xlink:href="#DejaVuSans-5c" transform="translate(213.71875 0)"/>
      <use xlink:href="#DejaVuSans-57" transform="translate(272.90625 0)"/>
      <use xlink:href="#DejaVuSans-4c" transform="translate(312.109375 0)"/>
      <use xlink:href="#DejaVuSans-46" transform="translate(339.890625 0)"/>
      <use xlink:href="#DejaVuSans-3" transform="translate(394.875 0)"/>
      <use xlink:href="#DejaVuSans-348" transform="translate(426.65625 0)"/>
      <use xlink:href="#DejaVuSans-20" transform="translate(487.84375 0)"/>
      <use xlink:href="#DejaVuSans-c9c" transform="translate(571.640625 0)"/>
      <use xlink:href="#DejaVuSans-15" transform="translate(655.4375 0)"/>
      <use xlink:href="#DejaVuSans-328" transform="translate(719.0625 0)"/>
     </g>
    </g>
   </g>
  </g>
  <g id="axes_2">
   <g id="patch_7">
    <path d="M 382.642344 284.335312 
L 660.74 284.335312 
L 660.74 49.922812 
L 382.642344 49.922812 
z
" style="fill: #ffffff"/>
   </g>
   <g id="matplotlib.axis_3">
    <g id="xtick_46">
     <g id="line2d_99">
      <path d="M 432.889438 284.335312 
L 432.889438 49.922812 
" clip-path="url(#pa1f320f6b2)" style="fill: none; stroke: #cccccc; stroke-width: 0.8; stroke-linecap: round"/>
     </g>
     <g id="line2d_100"/>
     <g id="text_17">
      <!-- $\mathdefault{10^{-2}}$ -->
      <g style="fill: #262626" transform="translate(421.139438 297.235312) scale(0.1 -0.1)">
       <use xlink:href="#DejaVuSans-14" transform="translate(0 0.746875)"/>
       <use xlink:href="#DejaVuSans-13" transform="translate(63.623047 0.746875)"/>
       <use xlink:href="#DejaVuSans-c9c" transform="translate(128.203125 42.046875) scale(0.7)"/>
       <use xlink:href="#DejaVuSans-15" transform="translate(186.855469 42.046875) scale(0.7)"/>
      </g>
     </g>
    </g>
    <g id="xtick_47">
     <g id="line2d_101">
      <path d="M 486.691878 284.335312 
L 486.691878 49.922812 
" clip-path="url(#pa1f320f6b2)" style="fill: none; stroke: #cccccc; stroke-width: 0.8; stroke-linecap: round"/>
     </g>
     <g id="line2d_102"/>
     <g id="text_18">
      <!-- $\mathdefault{10^{-1}}$ -->
      <g style="fill: #262626" transform="translate(474.941878 297.135312) scale(0.1 -0.1)">
       <use xlink:href="#DejaVuSans-14" transform="translate(0 0.665625)"/>
       <use xlink:href="#DejaVuSans-13" transform="translate(63.623047 0.665625)"/>
       <use xlink:href="#DejaVuSans-c9c" transform="translate(128.203125 41.965625) scale(0.7)"/>
       <use xlink:href="#DejaVuSans-14" transform="translate(186.855469 41.965625) scale(0.7)"/>
      </g>
     </g>
    </g>
    <g id="xtick_48">
     <g id="line2d_103">
      <path d="M 540.494318 284.335312 
L 540.494318 49.922812 
" clip-path="url(#pa1f320f6b2)" style="fill: none; stroke: #cccccc; stroke-width: 0.8; stroke-linecap: round"/>
     </g>
     <g id="line2d_104"/>
     <g id="text_19">
      <!-- $\mathdefault{10^{0}}$ -->
      <g style="fill: #262626" transform="translate(531.694318 297.235312) scale(0.1 -0.1)">
       <use xlink:href="#DejaVuSans-14" transform="translate(0 0.746875)"/>
       <use xlink:href="#DejaVuSans-13" transform="translate(63.623047 0.746875)"/>
       <use xlink:href="#DejaVuSans-13" transform="translate(128.203125 42.046875) scale(0.7)"/>
      </g>
     </g>
    </g>
    <g id="xtick_49">
     <g id="line2d_105">
      <path d="M 594.296758 284.335312 
L 594.296758 49.922812 
" clip-path="url(#pa1f320f6b2)" style="fill: none; stroke: #cccccc; stroke-width: 0.8; stroke-linecap: round"/>
     </g>
     <g id="line2d_106"/>
     <g id="text_20">
      <!-- $\mathdefault{10^{1}}$ -->
      <g style="fill: #262626" transform="translate(585.496758 297.135312) scale(0.1 -0.1)">
       <use xlink:href="#DejaVuSans-14" transform="translate(0 0.665625)"/>
       <use xlink:href="#DejaVuSans-13" transform="translate(63.623047 0.665625)"/>
       <use xlink:href="#DejaVuSans-14" transform="translate(128.203125 41.965625) scale(0.7)"/>
      </g>
     </g>
    </g>
    <g id="xtick_50">
     <g id="line2d_107">
      <path d="M 648.099197 284.335312 
L 648.099197 49.922812 
" clip-path="url(#pa1f320f6b2)" style="fill: none; stroke: #cccccc; stroke-width: 0.8; stroke-linecap: round"/>
     </g>
     <g id="line2d_108"/>
     <g id="text_21">
      <!-- $\mathdefault{10^{2}}$ -->
      <g style="fill: #262626" transform="translate(639.299197 297.235312) scale(0.1 -0.1)">
       <use xlink:href="#DejaVuSans-14" transform="translate(0 0.746875)"/>
       <use xlink:href="#DejaVuSans-13" transform="translate(63.623047 0.746875)"/>
       <use xlink:href="#DejaVuSans-15" transform="translate(128.203125 42.046875) scale(0.7)"/>
      </g>
     </g>
    </g>
    <g id="xtick_51">
     <g id="line2d_109"/>
    </g>
    <g id="xtick_52">
     <g id="line2d_110"/>
    </g>
    <g id="xtick_53">
     <g id="line2d_111"/>
    </g>
    <g id="xtick_54">
     <g id="line2d_112"/>
    </g>
    <g id="xtick_55">
     <g id="line2d_113"/>
    </g>
    <g id="xtick_56">
     <g id="line2d_114"/>
    </g>
    <g id="xtick_57">
     <g id="line2d_115"/>
    </g>
    <g id="xtick_58">
     <g id="line2d_116"/>
    </g>
    <g id="xtick_59">
     <g id="line2d_117"/>
    </g>
    <g id="xtick_60">
     <g id="line2d_118"/>
    </g>
    <g id="xtick_61">
     <g id="line2d_119"/>
    </g>
    <g id="xtick_62">
     <g id="line2d_120"/>
    </g>
    <g id="xtick_63">
     <g id="line2d_121"/>
    </g>
    <g id="xtick_64">
     <g id="line2d_122"/>
    </g>
    <g id="xtick_65">
     <g id="line2d_123"/>
    </g>
    <g id="xtick_66">
     <g id="line2d_124"/>
    </g>
    <g id="xtick_67">
     <g id="line2d_125"/>
    </g>
    <g id="xtick_68">
     <g id="line2d_126"/>
    </g>
    <g id="xtick_69">
     <g id="line2d_127"/>
    </g>
    <g id="xtick_70">
     <g id="line2d_128"/>
    </g>
    <g id="xtick_71">
     <g id="line2d_129"/>
    </g>
    <g id="xtick_72">
     <g id="line2d_130"/>
    </g>
    <g id="xtick_73">
     <g id="line2d_131"/>
    </g>
    <g id="xtick_74">
     <g id="line2d_132"/>
    </g>
    <g id="xtick_75">
     <g id="line2d_133"/>
    </g>
    <g id="xtick_76">
     <g id="line2d_134"/>
    </g>
    <g id="xtick_77">
     <g id="line2d_135"/>
    </g>
    <g id="xtick_78">
     <g id="line2d_136"/>
    </g>
    <g id="xtick_79">
     <g id="line2d_137"/>
    </g>
    <g id="xtick_80">
     <g id="line2d_138"/>
    </g>
    <g id="xtick_81">
     <g id="line2d_139"/>
    </g>
    <g id="xtick_82">
     <g id="line2d_140"/>
    </g>
    <g id="xtick_83">
     <g id="line2d_141"/>
    </g>
    <g id="xtick_84">
     <g id="line2d_142"/>
    </g>
    <g id="xtick_85">
     <g id="line2d_143"/>
    </g>
    <g id="xtick_86">
     <g id="line2d_144"/>
    </g>
    <g id="xtick_87">
     <g id="line2d_145"/>
    </g>
    <g id="xtick_88">
     <g id="line2d_146"/>
    </g>
    <g id="xtick_89">
     <g id="line2d_147"/>
    </g>
    <g id="xtick_90">
     <g id="line2d_148"/>
    </g>
    <g id="text_22">
     <!-- Saturation per beam -->
     <g style="fill: #262626" transform="translate(469.957578 311.236094) scale(0.1 -0.1)">
      <defs>
       <path id="DejaVuSans-36" d="M 3425 4513 
L 3425 3897 
Q 3066 4069 2747 4153 
Q 2428 4238 2131 4238 
Q 1616 4238 1336 4038 
Q 1056 3838 1056 3469 
Q 1056 3159 1242 3001 
Q 1428 2844 1947 2747 
L 2328 2669 
Q 3034 2534 3370 2195 
Q 3706 1856 3706 1288 
Q 3706 609 3251 259 
Q 2797 -91 1919 -91 
Q 1588 -91 1214 -16 
Q 841 59 441 206 
L 441 856 
Q 825 641 1194 531 
Q 1563 422 1919 422 
Q 2459 422 2753 634 
Q 3047 847 3047 1241 
Q 3047 1584 2836 1778 
Q 2625 1972 2144 2069 
L 1759 2144 
Q 1053 2284 737 2584 
Q 422 2884 422 3419 
Q 422 4038 858 4394 
Q 1294 4750 2059 4750 
Q 2388 4750 2728 4690 
Q 3069 4631 3425 4513 
z
" transform="scale(0.015625)"/>
      </defs>
      <use xlink:href="#DejaVuSans-36"/>
      <use xlink:href="#DejaVuSans-44" transform="translate(63.484375 0)"/>
      <use xlink:href="#DejaVuSans-57" transform="translate(124.765625 0)"/>
      <use xlink:href="#DejaVuSans-58" transform="translate(163.96875 0)"/>
      <use xlink:href="#DejaVuSans-55" transform="translate(227.34375 0)"/>
      <use xlink:href="#DejaVuSans-44" transform="translate(268.453125 0)"/>
      <use xlink:href="#DejaVuSans-57" transform="translate(329.734375 0)"/>
      <use xlink:href="#DejaVuSans-4c" transform="translate(368.9375 0)"/>
      <use xlink:href="#DejaVuSans-52" transform="translate(396.71875 0)"/>
      <use xlink:href="#DejaVuSans-51" transform="translate(457.90625 0)"/>
      <use xlink:href="#DejaVuSans-3" transform="translate(521.28125 0)"/>
      <use xlink:href="#DejaVuSans-53" transform="translate(553.0625 0)"/>
      <use xlink:href="#DejaVuSans-48" transform="translate(616.546875 0)"/>
      <use xlink:href="#DejaVuSans-55" transform="translate(678.078125 0)"/>
      <use xlink:href="#DejaVuSans-3" transform="translate(719.1875 0)"/>
      <use xlink:href="#DejaVuSans-45" transform="translate(750.96875 0)"/>
      <use xlink:href="#DejaVuSans-48" transform="translate(814.453125 0)"/>
      <use xlink:href="#DejaVuSans-44" transform="translate(875.984375 0)"/>
      <use xlink:href="#DejaVuSans-50" transform="translate(937.265625 0)"/>
     </g>
    </g>
   </g>
   <g id="matplotlib.axis_4">
    <g id="ytick_37">
     <g id="line2d_149">
      <path d="M 382.642344 273.719869 
L 660.74 273.719869 
" clip-path="url(#pa1f320f6b2)" style="fill: none; stroke: #cccccc; stroke-width: 0.8; stroke-linecap: round"/>
     </g>
     <g id="line2d_150"/>
     <g id="text_23">
      <!-- 0.0 -->
      <g style="fill: #262626" transform="translate(363.239219 277.518697) scale(0.1 -0.1)">
       <defs>
        <path id="DejaVuSans-11" d="M 684 794 
L 1344 794 
L 1344 0 
L 684 0 
L 684 794 
z
" transform="scale(0.015625)"/>
       </defs>
       <use xlink:href="#DejaVuSans-13"/>
       <use xlink:href="#DejaVuSans-11" transform="translate(63.625 0)"/>
       <use xlink:href="#DejaVuSans-13" transform="translate(95.40625 0)"/>
      </g>
     </g>
    </g>
    <g id="ytick_38">
     <g id="line2d_151">
      <path d="M 382.642344 245.528199 
L 660.74 245.528199 
" clip-path="url(#pa1f320f6b2)" style="fill: none; stroke: #cccccc; stroke-width: 0.8; stroke-linecap: round"/>
     </g>
     <g id="line2d_152"/>
     <g id="text_24">
      <!-- 2.5 -->
      <g style="fill: #262626" transform="translate(363.239219 249.327027) scale(0.1 -0.1)">
       <defs>
        <path id="DejaVuSans-18" d="M 691 4666 
L 3169 4666 
L 3169 4134 
L 1269 4134 
L 1269 2991 
Q 1406 3038 1543 3061 
Q 1681 3084 1819 3084 
Q 2600 3084 3056 2656 
Q 3513 2228 3513 1497 
Q 3513 744 3044 326 
Q 2575 -91 1722 -91 
Q 1428 -91 1123 -41 
Q 819 9 494 109 
L 494 744 
Q 775 591 1075 516 
Q 1375 441 1709 441 
Q 2250 441 2565 725 
Q 2881 1009 2881 1497 
Q 2881 1984 2565 2268 
Q 2250 2553 1709 2553 
Q 1456 2553 1204 2497 
Q 953 2441 691 2322 
L 691 4666 
z
" transform="scale(0.015625)"/>
       </defs>
       <use xlink:href="#DejaVuSans-15"/>
       <use xlink:href="#DejaVuSans-11" transform="translate(63.625 0)"/>
       <use xlink:href="#DejaVuSans-18" transform="translate(95.40625 0)"/>
      </g>
     </g>
    </g>
    <g id="ytick_39">
     <g id="line2d_153">
      <path d="M 382.642344 217.336528 
L 660.74 217.336528 
" clip-path="url(#pa1f320f6b2)" style="fill: none; stroke: #cccccc; stroke-width: 0.8; stroke-linecap: round"/>
     </g>
     <g id="line2d_154"/>
     <g id="text_25">
      <!-- 5.0 -->
      <g style="fill: #262626" transform="translate(363.239219 221.135356) scale(0.1 -0.1)">
       <use xlink:href="#DejaVuSans-18"/>
       <use xlink:href="#DejaVuSans-11" transform="translate(63.625 0)"/>
       <use xlink:href="#DejaVuSans-13" transform="translate(95.40625 0)"/>
      </g>
     </g>
    </g>
    <g id="ytick_40">
     <g id="line2d_155">
      <path d="M 382.642344 189.144858 
L 660.74 189.144858 
" clip-path="url(#pa1f320f6b2)" style="fill: none; stroke: #cccccc; stroke-width: 0.8; stroke-linecap: round"/>
     </g>
     <g id="line2d_156"/>
     <g id="text_26">
      <!-- 7.5 -->
      <g style="fill: #262626" transform="translate(363.239219 192.943686) scale(0.1 -0.1)">
       <defs>
        <path id="DejaVuSans-1a" d="M 525 4666 
L 3525 4666 
L 3525 4397 
L 1831 0 
L 1172 0 
L 2766 4134 
L 525 4134 
L 525 4666 
z
" transform="scale(0.015625)"/>
       </defs>
       <use xlink:href="#DejaVuSans-1a"/>
       <use xlink:href="#DejaVuSans-11" transform="translate(63.625 0)"/>
       <use xlink:href="#DejaVuSans-18" transform="translate(95.40625 0)"/>
      </g>
     </g>
    </g>
    <g id="ytick_41">
     <g id="line2d_157">
      <path d="M 382.642344 160.953188 
L 660.74 160.953188 
" clip-path="url(#pa1f320f6b2)" style="fill: none; stroke: #cccccc; stroke-width: 0.8; stroke-linecap: round"/>
     </g>
     <g id="line2d_158"/>
     <g id="text_27">
      <!-- 10.0 -->
      <g style="fill: #262626" transform="translate(356.876719 164.752016) scale(0.1 -0.1)">
       <use xlink:href="#DejaVuSans-14"/>
       <use xlink:href="#DejaVuSans-13" transform="translate(63.625 0)"/>
       <use xlink:href="#DejaVuSans-11" transform="translate(127.25 0)"/>
       <use xlink:href="#DejaVuSans-13" transform="translate(159.03125 0)"/>
      </g>
     </g>
    </g>
    <g id="ytick_42">
     <g id="line2d_159">
      <path d="M 382.642344 132.761518 
L 660.74 132.761518 
" clip-path="url(#pa1f320f6b2)" style="fill: none; stroke: #cccccc; stroke-width: 0.8; stroke-linecap: round"/>
     </g>
     <g id="line2d_160"/>
     <g id="text_28">
      <!-- 12.5 -->
      <g style="fill: #262626" transform="translate(356.876719 136.560346) scale(0.1 -0.1)">
       <use xlink:href="#DejaVuSans-14"/>
       <use xlink:href="#DejaVuSans-15" transform="translate(63.625 0)"/>
       <use xlink:href="#DejaVuSans-11" transform="translate(127.25 0)"/>
       <use xlink:href="#DejaVuSans-18" transform="translate(159.03125 0)"/>
      </g>
     </g>
    </g>
    <g id="ytick_43">
     <g id="line2d_161">
      <path d="M 382.642344 104.569848 
L 660.74 104.569848 
" clip-path="url(#pa1f320f6b2)" style="fill: none; stroke: #cccccc; stroke-width: 0.8; stroke-linecap: round"/>
     </g>
     <g id="line2d_162"/>
     <g id="text_29">
      <!-- 15.0 -->
      <g style="fill: #262626" transform="translate(356.876719 108.368676) scale(0.1 -0.1)">
       <use xlink:href="#DejaVuSans-14"/>
       <use xlink:href="#DejaVuSans-18" transform="translate(63.625 0)"/>
       <use xlink:href="#DejaVuSans-11" transform="translate(127.25 0)"/>
       <use xlink:href="#DejaVuSans-13" transform="translate(159.03125 0)"/>
      </g>
     </g>
    </g>
    <g id="ytick_44">
     <g id="line2d_163">
      <path d="M 382.642344 76.378177 
L 660.74 76.378177 
" clip-path="url(#pa1f320f6b2)" style="fill: none; stroke: #cccccc; stroke-width: 0.8; stroke-linecap: round"/>
     </g>
     <g id="line2d_164"/>
     <g id="text_30">
      <!-- 17.5 -->
      <g style="fill: #262626" transform="translate(356.876719 80.177006) scale(0.1 -0.1)">
       <use xlink:href="#DejaVuSans-14"/>
       <use xlink:href="#DejaVuSans-1a" transform="translate(63.625 0)"/>
       <use xlink:href="#DejaVuSans-11" transform="translate(127.25 0)"/>
       <use xlink:href="#DejaVuSans-18" transform="translate(159.03125 0)"/>
      </g>
     </g>
    </g>
    <g id="text_31">
     <!-- Total scattering (MHz) -->
     <g style="fill: #262626" transform="translate(350.474375 221.786875) rotate(-90) scale(0.1 -0.1)">
      <defs>
       <path id="DejaVuSans-37" d="M -19 4666 
L 3928 4666 
L 3928 4134 
L 2272 4134 
L 2272 0 
L 1638 0 
L 1638 4134 
L -19 4134 
L -19 4666 
z
" transform="scale(0.015625)"/>
       <path id="DejaVuSans-30" d="M 628 4666 
L 1569 4666 
L 2759 1491 
L 3956 4666 
L 4897 4666 
L 4897 0 
L 4281 0 
L 4281 4097 
L 3078 897 
L 2444 897 
L 1241 4097 
L 1241 0 
L 628 0 
L 628 4666 
z
" transform="scale(0.015625)"/>
       <path id="DejaVuSans-2b" d="M 628 4666 
L 1259 4666 
L 1259 2753 
L 3553 2753 
L 3553 4666 
L 4184 4666 
L 4184 0 
L 3553 0 
L 3553 2222 
L 1259 2222 
L 1259 0 
L 628 0 
L 628 4666 
z
" transform="scale(0.015625)"/>
       <path id="DejaVuSans-5d" d="M 353 3500 
L 3084 3500 
L 3084 2975 
L 922 459 
L 3084 459 
L 3084 0 
L 275 0 
L 275 525 
L 2438 3041 
L 353 3041 
L 353 3500 
z
" transform="scale(0.015625)"/>
      </defs>
      <use xlink:href="#DejaVuSans-37"/>
      <use xlink:href="#DejaVuSans-52" transform="translate(44.09375 0)"/>
      <use xlink:href="#DejaVuSans-57" transform="translate(105.28125 0)"/>
      <use xlink:href="#DejaVuSans-44" transform="translate(144.484375 0)"/>
      <use xlink:href="#DejaVuSans-4f" transform="translate(205.765625 0)"/>
      <use xlink:href="#DejaVuSans-3" transform="translate(233.546875 0)"/>
      <use xlink:href="#DejaVuSans-56" transform="translate(265.328125 0)"/>
      <use xlink:href="#DejaVuSans-46" transform="translate(317.421875 0)"/>
      <use xlink:href="#DejaVuSans-44" transform="translate(372.40625 0)"/>
      <use xlink:href="#DejaVuSans-57" transform="translate(433.6875 0)"/>
      <use xlink:href="#DejaVuSans-57" transform="translate(472.890625 0)"/>
      <use xlink:href="#DejaVuSans-48" transform="translate(512.09375 0)"/>
      <use xlink:href="#DejaVuSans-55" transform="translate(573.625 0)"/>
      <use xlink:href="#DejaVuSans-4c" transform="translate(614.734375 0)"/>
      <use xlink:href="#DejaVuSans-51" transform="translate(642.515625 0)"/>
      <use xlink:href="#DejaVuSans-4a" transform="translate(705.890625 0)"/>
      <use xlink:href="#DejaVuSans-3" transform="translate(769.375 0)"/>
      <use xlink:href="#DejaVuSans-b" transform="translate(801.15625 0)"/>
      <use xlink:href="#DejaVuSans-30" transform="translate(840.171875 0)"/>
      <use xlink:href="#DejaVuSans-2b" transform="translate(926.453125 0)"/>
      <use xlink:href="#DejaVuSans-5d" transform="translate(1001.65625 0)"/>
      <use xlink:href="#DejaVuSans-c" transform="translate(1054.140625 0)"/>
     </g>
    </g>
   </g>
   <g id="line2d_165">
    <path d="M 395.283146 273.2053 
L 398.123776 273.138962 
L 400.964406 273.064098 
L 403.805036 272.979619 
L 406.645665 272.8843 
L 409.486295 272.776761 
L 412.326925 272.65545 
L 415.167555 272.518623 
L 418.008185 272.364318 
L 420.848814 272.190335 
L 423.689444 271.994201 
L 426.530074 271.773146 
L 429.370704 271.524066 
L 432.211334 271.243487 
L 435.051963 270.927527 
L 437.892593 270.571851 
L 440.733223 270.171629 
L 443.573853 269.721484 
L 446.414482 269.21545 
L 449.255112 268.646912 
L 452.095742 268.008563 
L 454.936372 267.292348 
L 457.777002 266.489422 
L 460.617631 265.590105 
L 463.458261 264.583853 
L 466.298891 263.459233 
L 469.139521 262.203922 
L 471.980151 260.804725 
L 474.82078 259.24762 
L 477.66141 257.517842 
L 480.50204 255.600003 
L 483.34267 253.478274 
L 486.1833 251.136612 
L 489.023929 248.559065 
L 491.864559 245.730142 
L 494.705189 242.635255 
L 497.545819 239.261243 
L 500.386448 235.596952 
L 503.227078 231.63388 
L 506.067708 227.36684 
L 508.908338 222.794647 
L 511.748968 217.920749 
L 514.589597 212.753799 
L 517.430227 207.308088 
L 520.270857 201.603805 
L 523.111487 195.66708 
L 525.952117 189.529764 
L 528.792746 183.228933 
L 531.633376 176.80613 
L 534.474006 170.306336 
L 537.314636 163.776764 
L 540.155265 157.265492 
L 542.995895 150.820067 
L 545.836525 144.486123 
L 548.677155 138.306123 
L 551.517785 132.318296 
L 554.358414 126.555795 
L 557.199044 121.046151 
L 560.039674 115.810979 
L 562.880304 110.865967 
L 565.720934 106.221081 
L 568.561563 101.880968 
L 571.402193 97.845495 
L 574.242823 94.110373 
L 577.083453 90.667829 
L 579.924083 87.507286 
L 582.764712 84.616006 
L 585.605342 81.979693 
L 588.445972 79.58303 
L 591.286602 77.410137 
L 594.127231 75.444965 
L 596.967861 73.671608 
L 599.808491 72.074556 
L 602.649121 70.63888 
L 605.489751 69.350373 
L 608.33038 68.195636 
L 611.17101 67.162135 
L 614.01164 66.238223 
L 616.85227 65.413146 
L 619.6929 64.677019 
L 622.533529 64.0208 
L 625.374159 63.43625 
L 628.214789 62.915887 
L 631.055419 62.452936 
L 633.896049 62.041279 
L 636.736678 61.675403 
L 639.577308 61.350352 
L 642.417938 61.061677 
L 645.258568 60.805391 
L 648.099197 60.577926 
" clip-path="url(#pa1f320f6b2)" style="fill: none; stroke: #1f77b4; stroke-width: 1.5; stroke-linecap: round"/>
   </g>
   <g id="line2d_166">
    <path d="M 395.283146 273.568269 
L 398.123776 273.548687 
L 400.964406 273.526579 
L 403.805036 273.501618 
L 406.645665 273.473437 
L 409.486295 273.441622 
L 412.326925 273.405706 
L 415.167555 273.365162 
L 418.008185 273.319394 
L 420.848814 273.267734 
L 423.689444 273.209426 
L 426.530074 273.143619 
L 429.370704 273.069353 
L 432.211334 272.985549 
L 435.051963 272.89099 
L 437.892593 272.784308 
L 440.733223 272.663963 
L 443.573853 272.528224 
L 446.414482 272.375145 
L 449.255112 272.202541 
L 452.095742 272.00796 
L 454.936372 271.788652 
L 457.777002 271.541536 
L 460.617631 271.263164 
L 463.458261 270.949682 
L 466.298891 270.596786 
L 469.139521 270.199681 
L 471.980151 269.753028 
L 474.82078 269.250902 
L 477.66141 268.686732 
L 480.50204 268.053258 
L 483.34267 267.342477 
L 486.1833 266.545597 
L 489.023929 265.652996 
L 491.864559 264.654187 
L 494.705189 263.537796 
L 497.545819 262.29156 
L 500.386448 260.90234 
L 503.227078 259.356167 
L 506.067708 257.638322 
L 508.908338 255.733454 
L 511.748968 253.625755 
L 514.589597 251.29919 
L 517.430227 248.737789 
L 520.270857 245.926016 
L 523.111487 242.849211 
L 525.952117 239.494099 
L 528.792746 235.849374 
L 531.633376 231.906335 
L 534.474006 227.659558 
L 537.314636 223.107569 
L 540.155265 218.25349 
L 542.995895 213.105614 
L 545.836525 207.677847 
L 548.677155 201.989984 
L 551.517785 196.067763 
L 554.358414 189.942667 
L 557.199044 183.651449 
L 560.039674 177.235379 
L 562.880304 170.739251 
L 565.720934 164.210168 
L 568.561563 157.696195 
L 571.402193 151.244957 
L 574.242823 144.902255 
L 577.083453 138.7108 
L 579.924083 132.709129 
L 582.764712 126.930754 
L 585.605342 121.403589 
L 588.445972 116.149647 
L 591.286602 111.185003 
L 594.127231 106.519994 
L 596.967861 102.159605 
L 599.808491 98.104001 
L 602.649121 94.349146 
L 605.489751 90.887482 
L 608.33038 87.708593 
L 611.17101 84.799868 
L 614.01164 82.147096 
L 616.85227 79.735013 
L 619.6929 77.547764 
L 622.533529 75.569298 
L 625.374159 73.783694 
L 628.214789 72.175408 
L 631.055419 70.72947 
L 633.896049 69.431618 
L 636.736678 68.268399 
L 639.577308 67.227221 
L 642.417938 66.296378 
L 645.258568 65.465055 
L 648.099197 64.723312 
" clip-path="url(#pa1f320f6b2)" style="fill: none; stroke: #ff7f0e; stroke-width: 1.5; stroke-linecap: round"/>
   </g>
   <g id="line2d_167">
    <path d="M 395.283146 273.680199 
L 398.123776 273.675072 
L 400.964406 273.669282 
L 403.805036 273.662745 
L 406.645665 273.655363 
L 409.486295 273.647027 
L 412.326925 273.637614 
L 415.167555 273.626986 
L 418.008185 273.614985 
L 420.848814 273.601434 
L 423.689444 273.586134 
L 426.530074 273.568858 
L 429.370704 273.549353 
L 432.211334 273.52733 
L 435.051963 273.502466 
L 437.892593 273.474395 
L 440.733223 273.442703 
L 443.573853 273.406927 
L 446.414482 273.366539 
L 449.255112 273.32095 
L 452.095742 273.26949 
L 454.936372 273.211407 
L 457.777002 273.145855 
L 460.617631 273.071876 
L 463.458261 272.988396 
L 466.298891 272.894202 
L 469.139521 272.787932 
L 471.980151 272.668051 
L 474.82078 272.532835 
L 477.66141 272.380344 
L 480.50204 272.208403 
L 483.34267 272.014568 
L 486.1833 271.796098 
L 489.023929 271.549925 
L 491.864559 271.272613 
L 494.705189 270.96032 
L 497.545819 270.60876 
L 500.386448 270.213152 
L 503.227078 269.768177 
L 506.067708 269.267927 
L 508.908338 268.705856 
L 511.748968 268.074724 
L 514.589597 267.366554 
L 517.430227 266.57258 
L 520.270857 265.683206 
L 523.111487 264.687973 
L 525.952117 263.575538 
L 528.792746 262.333665 
L 531.633376 260.949242 
L 534.474006 259.408326 
L 537.314636 257.69622 
L 540.155265 255.797592 
L 542.995895 253.696645 
L 545.836525 251.377347 
L 548.677155 248.82372 
L 551.517785 246.020209 
L 554.358414 242.952116 
L 557.199044 239.606115 
L 560.039674 235.970826 
L 562.880304 232.037456 
L 565.720934 227.800464 
L 568.561563 223.258238 
L 571.402193 218.413746 
L 574.242823 213.275105 
L 577.083453 207.856037 
L 579.924083 202.176146 
L 582.764712 196.26098 
L 585.605342 190.141845 
L 588.445972 183.855334 
L 591.286602 177.442589 
L 594.127231 170.948306 
L 596.967861 164.419534 
L 599.808491 157.904332 
L 602.649121 151.450358 
L 605.489751 145.103494 
L 608.33038 138.906567 
L 611.17101 132.898262 
L 614.01164 127.112264 
L 616.85227 121.576671 
L 619.6929 116.313687 
L 622.533529 111.339577 
L 625.374159 106.664856 
L 628.214789 102.294674 
L 631.055419 98.229338 
L 633.896049 94.464941 
L 636.736678 90.994024 
L 639.577308 87.806254 
L 642.417938 84.88908 
L 645.258568 82.228335 
L 648.099197 79.808778 
" clip-path="url(#pa1f320f6b2)" style="fill: none; stroke: #2ca02c; stroke-width: 1.5; stroke-linecap: round"/>
   </g>
   <g id="patch_8">
    <path d="M 382.642344 284.335312 
L 382.642344 49.922812 
" style="fill: none; stroke: #cccccc; stroke-linejoin: miter; stroke-linecap: square"/>
   </g>
   <g id="patch_9">
    <path d="M 660.74 284.335312 
L 660.74 49.922812 
" style="fill: none; stroke: #cccccc; stroke-linejoin: miter; stroke-linecap: square"/>
   </g>
   <g id="patch_10">
    <path d="M 382.642344 284.335312 
L 660.74 284.335312 
" style="fill: none; stroke: #cccccc; stroke-linejoin: miter; stroke-linecap: square"/>
   </g>
   <g id="patch_11">
    <path d="M 382.642344 49.922812 
L 660.74 49.922812 
" style="fill: none; stroke: #cccccc; stroke-linejoin: miter; stroke-linecap: square"/>
   </g>
   <g id="text_32">
    <!-- Scattering keeps saturating -->
    <g style="fill: #262626" transform="translate(438.640859 43.922812) scale(0.12 -0.12)">
     <use xlink:href="#DejaVuSans-36"/>
     <use xlink:href="#DejaVuSans-46" transform="translate(63.484375 0)"/>
     <use xlink:href="#DejaVuSans-44" transform="translate(118.46875 0)"/>
     <use xlink:href="#DejaVuSans-57" transform="translate(179.75 0)"/>
     <use xlink:href="#DejaVuSans-57" transform="translate(218.953125 0)"/>
     <use xlink:href="#DejaVuSans-48" transform="translate(258.15625 0)"/>
     <use xlink:href="#DejaVuSans-55" transform="translate(319.6875 0)"/>
     <use xlink:href="#DejaVuSans-4c" transform="translate(360.796875 0)"/>
     <use xlink:href="#DejaVuSans-51" transform="translate(388.578125 0)"/>
     <use xlink:href="#DejaVuSans-4a" transform="translate(451.953125 0)"/>
     <use xlink:href="#DejaVuSans-3" transform="translate(515.4375 0)"/>
     <use xlink:href="#DejaVuSans-4e" transform="translate(547.21875 0)"/>
     <use xlink:href="#DejaVuSans-48" transform="translate(601.5625 0)"/>
     <use xlink:href="#DejaVuSans-48" transform="translate(663.09375 0)"/>
     <use xlink:href="#DejaVuSans-53" transform="translate(724.625 0)"/>
     <use xlink:href="#DejaVuSans-56" transform="translate(788.109375 0)"/>
     <use xlink:href="#DejaVuSans-3" transform="translate(840.203125 0)"/>
     <use xlink:href="#DejaVuSans-56" transform="translate(871.984375 0)"/>
     <use xlink:href="#DejaVuSans-44" transform="translate(924.078125 0)"/>
     <use xlink:href="#DejaVuSans-57" transform="translate(985.359375 0)"/>
     <use xlink:href="#DejaVuSans-58" transform="translate(1024.5625 0)"/>
     <use xlink:href="#DejaVuSans-55" transform="translate(1087.9375 0)"/>
     <use xlink:href="#DejaVuSans-44" transform="translate(1129.046875 0)"/>
     <use xlink:href="#DejaVuSans-57" transform="translate(1190.328125 0)"/>
     <use xlink:href="#DejaVuSans-4c" transform="translate(1229.53125 0)"/>
     <use xlink:href="#DejaVuSans-51" transform="translate(1257.3125 0)"/>
     <use xlink:href="#DejaVuSans-4a" transform="translate(1320.6875 0)"/>
    </g>
   </g>
   <g id="legend_2">
    <g id="line2d_168">
     <path d="M 391.642344 63.02125 
L 401.642344 63.02125 
L 411.642344 63.02125 
" style="fill: none; stroke: #1f77b4; stroke-width: 1.5; stroke-linecap: round"/>
    </g>
    <g id="text_33">
     <!-- δ=-1Γ -->
     <g style="fill: #262626" transform="translate(419.642344 66.52125) scale(0.1 -0.1)">
      <use xlink:href="#DejaVuSans-348"/>
      <use xlink:href="#DejaVuSans-20" transform="translate(61.1875 0)"/>
      <use xlink:href="#DejaVuSans-10" transform="translate(144.984375 0)"/>
      <use xlink:href="#DejaVuSans-14" transform="translate(181.0625 0)"/>
      <use xlink:href="#DejaVuSans-328" transform="translate(244.6875 0)"/>
     </g>
    </g>
    <g id="line2d_169">
     <path d="M 391.642344 78.022031 
L 401.642344 78.022031 
L 411.642344 78.022031 
" style="fill: none; stroke: #ff7f0e; stroke-width: 1.5; stroke-linecap: round"/>
    </g>
    <g id="text_34">
     <!-- δ=-2Γ -->
     <g style="fill: #262626" transform="translate(419.642344 81.522031) scale(0.1 -0.1)">
      <use xlink:href="#DejaVuSans-348"/>
      <use xlink:href="#DejaVuSans-20" transform="translate(61.1875 0)"/>
      <use xlink:href="#DejaVuSans-10" transform="translate(144.984375 0)"/>
      <use xlink:href="#DejaVuSans-15" transform="translate(181.0625 0)"/>
      <use xlink:href="#DejaVuSans-328" transform="translate(244.6875 0)"/>
     </g>
    </g>
    <g id="line2d_170">
     <path d="M 391.642344 93.022812 
L 401.642344 93.022812 
L 411.642344 93.022812 
" style="fill: none; stroke: #2ca02c; stroke-width: 1.5; stroke-linecap: round"/>
    </g>
    <g id="text_35">
     <!-- δ=-4Γ -->
     <g style="fill: #262626" transform="translate(419.642344 96.522812) scale(0.1 -0.1)">
      <use xlink:href="#DejaVuSans-348"/>
      <use xlink:href="#DejaVuSans-20" transform="translate(61.1875 0)"/>
      <use xlink:href="#DejaVuSans-10" transform="translate(144.984375 0)"/>
      <use xlink:href="#DejaVuSans-17" transform="translate(181.0625 0)"/>
      <use xlink:href="#DejaVuSans-328" transform="translate(244.6875 0)"/>
     </g>
    </g>
   </g>
  </g>
  <g id="axes_3">
   <g id="patch_12">
    <path d="M 715.282344 284.335312 
L 993.38 284.335312 
L 993.38 49.922812 
L 715.282344 49.922812 
z
" style="fill: #ffffff"/>
   </g>
   <g id="matplotlib.axis_5">
    <g id="xtick_91">
     <g id="line2d_171">
      <path d="M 727.923146 284.335312 
L 727.923146 49.922812 
" clip-path="url(#pf663145099)" style="fill: none; stroke: #cccccc; stroke-width: 0.8; stroke-linecap: round"/>
     </g>
     <g id="line2d_172"/>
     <g id="text_36">
      <!-- −2.0 -->
      <g style="fill: #262626" transform="translate(715.78174 295.432969) scale(0.1 -0.1)">
       <use xlink:href="#DejaVuSans-c9c"/>
       <use xlink:href="#DejaVuSans-15" transform="translate(83.796875 0)"/>
       <use xlink:href="#DejaVuSans-11" transform="translate(147.421875 0)"/>
       <use xlink:href="#DejaVuSans-13" transform="translate(179.203125 0)"/>
      </g>
     </g>
    </g>
    <g id="xtick_92">
     <g id="line2d_173">
      <path d="M 759.525153 284.335312 
L 759.525153 49.922812 
" clip-path="url(#pf663145099)" style="fill: none; stroke: #cccccc; stroke-width: 0.8; stroke-linecap: round"/>
     </g>
     <g id="line2d_174"/>
     <g id="text_37">
      <!-- −1.5 -->
      <g style="fill: #262626" transform="translate(747.383746 295.432969) scale(0.1 -0.1)">
       <use xlink:href="#DejaVuSans-c9c"/>
       <use xlink:href="#DejaVuSans-14" transform="translate(83.796875 0)"/>
       <use xlink:href="#DejaVuSans-11" transform="translate(147.421875 0)"/>
       <use xlink:href="#DejaVuSans-18" transform="translate(179.203125 0)"/>
      </g>
     </g>
    </g>
    <g id="xtick_93">
     <g id="line2d_175">
      <path d="M 791.127159 284.335312 
L 791.127159 49.922812 
" clip-path="url(#pf663145099)" style="fill: none; stroke: #cccccc; stroke-width: 0.8; stroke-linecap: round"/>
     </g>
     <g id="line2d_176"/>
     <g id="text_38">
      <!-- −1.0 -->
      <g style="fill: #262626" transform="translate(778.985753 295.432969) scale(0.1 -0.1)">
       <use xlink:href="#DejaVuSans-c9c"/>
       <use xlink:href="#DejaVuSans-14" transform="translate(83.796875 0)"/>
       <use xlink:href="#DejaVuSans-11" transform="translate(147.421875 0)"/>
       <use xlink:href="#DejaVuSans-13" transform="translate(179.203125 0)"/>
      </g>
     </g>
    </g>
    <g id="xtick_94">
     <g id="line2d_177">
      <path d="M 822.729165 284.335312 
L 822.729165 49.922812 
" clip-path="url(#pf663145099)" style="fill: none; stroke: #cccccc; stroke-width: 0.8; stroke-linecap: round"/>
     </g>
     <g id="line2d_178"/>
     <g id="text_39">
      <!-- −0.5 -->
      <g style="fill: #262626" transform="translate(810.587759 295.432969) scale(0.1 -0.1)">
       <use xlink:href="#DejaVuSans-c9c"/>
       <use xlink:href="#DejaVuSans-13" transform="translate(83.796875 0)"/>
       <use xlink:href="#DejaVuSans-11" transform="translate(147.421875 0)"/>
       <use xlink:href="#DejaVuSans-18" transform="translate(179.203125 0)"/>
      </g>
     </g>
    </g>
    <g id="xtick_95">
     <g id="line2d_179">
      <path d="M 854.331172 284.335312 
L 854.331172 49.922812 
" clip-path="url(#pf663145099)" style="fill: none; stroke: #cccccc; stroke-width: 0.8; stroke-linecap: round"/>
     </g>
     <g id="line2d_180"/>
     <g id="text_40">
      <!-- 0.0 -->
      <g style="fill: #262626" transform="translate(846.379609 295.432969) scale(0.1 -0.1)">
       <use xlink:href="#DejaVuSans-13"/>
       <use xlink:href="#DejaVuSans-11" transform="translate(63.625 0)"/>
       <use xlink:href="#DejaVuSans-13" transform="translate(95.40625 0)"/>
      </g>
     </g>
    </g>
    <g id="xtick_96">
     <g id="line2d_181">
      <path d="M 885.933178 284.335312 
L 885.933178 49.922812 
" clip-path="url(#pf663145099)" style="fill: none; stroke: #cccccc; stroke-width: 0.8; stroke-linecap: round"/>
     </g>
     <g id="line2d_182"/>
     <g id="text_41">
      <!-- 0.5 -->
      <g style="fill: #262626" transform="translate(877.981616 295.432969) scale(0.1 -0.1)">
       <use xlink:href="#DejaVuSans-13"/>
       <use xlink:href="#DejaVuSans-11" transform="translate(63.625 0)"/>
       <use xlink:href="#DejaVuSans-18" transform="translate(95.40625 0)"/>
      </g>
     </g>
    </g>
    <g id="xtick_97">
     <g id="line2d_183">
      <path d="M 917.535185 284.335312 
L 917.535185 49.922812 
" clip-path="url(#pf663145099)" style="fill: none; stroke: #cccccc; stroke-width: 0.8; stroke-linecap: round"/>
     </g>
     <g id="line2d_184"/>
     <g id="text_42">
      <!-- 1.0 -->
      <g style="fill: #262626" transform="translate(909.583622 295.432969) scale(0.1 -0.1)">
       <use xlink:href="#DejaVuSans-14"/>
       <use xlink:href="#DejaVuSans-11" transform="translate(63.625 0)"/>
       <use xlink:href="#DejaVuSans-13" transform="translate(95.40625 0)"/>
      </g>
     </g>
    </g>
    <g id="xtick_98">
     <g id="line2d_185">
      <path d="M 949.137191 284.335312 
L 949.137191 49.922812 
" clip-path="url(#pf663145099)" style="fill: none; stroke: #cccccc; stroke-width: 0.8; stroke-linecap: round"/>
     </g>
     <g id="line2d_186"/>
     <g id="text_43">
      <!-- 1.5 -->
      <g style="fill: #262626" transform="translate(941.185629 295.432969) scale(0.1 -0.1)">
       <use xlink:href="#DejaVuSans-14"/>
       <use xlink:href="#DejaVuSans-11" transform="translate(63.625 0)"/>
       <use xlink:href="#DejaVuSans-18" transform="translate(95.40625 0)"/>
      </g>
     </g>
    </g>
    <g id="xtick_99">
     <g id="line2d_187">
      <path d="M 980.739197 284.335312 
L 980.739197 49.922812 
" clip-path="url(#pf663145099)" style="fill: none; stroke: #cccccc; stroke-width: 0.8; stroke-linecap: round"/>
     </g>
     <g id="line2d_188"/>
     <g id="text_44">
      <!-- 2.0 -->
      <g style="fill: #262626" transform="translate(972.787635 295.432969) scale(0.1 -0.1)">
       <use xlink:href="#DejaVuSans-15"/>
       <use xlink:href="#DejaVuSans-11" transform="translate(63.625 0)"/>
       <use xlink:href="#DejaVuSans-13" transform="translate(95.40625 0)"/>
      </g>
     </g>
    </g>
    <g id="text_45">
     <!-- vx (m/s) -->
     <g style="fill: #262626" transform="translate(833.762422 309.432969) scale(0.1 -0.1)">
      <defs>
       <path id="DejaVuSans-59" d="M 191 3500 
L 800 3500 
L 1894 563 
L 2988 3500 
L 3597 3500 
L 2284 0 
L 1503 0 
L 191 3500 
z
" transform="scale(0.015625)"/>
      </defs>
      <use xlink:href="#DejaVuSans-59"/>
      <use xlink:href="#DejaVuSans-5b" transform="translate(59.1875 0)"/>
      <use xlink:href="#DejaVuSans-3" transform="translate(118.375 0)"/>
      <use xlink:href="#DejaVuSans-b" transform="translate(150.15625 0)"/>
      <use xlink:href="#DejaVuSans-50" transform="translate(189.171875 0)"/>
      <use xlink:href="#DejaVuSans-12" transform="translate(286.578125 0)"/>
      <use xlink:href="#DejaVuSans-56" transform="translate(320.265625 0)"/>
      <use xlink:href="#DejaVuSans-c" transform="translate(372.359375 0)"/>
     </g>
    </g>
   </g>
   <g id="matplotlib.axis_6">
    <g id="ytick_45">
     <g id="line2d_189">
      <path d="M 715.282344 248.656214 
L 993.38 248.656214 
" clip-path="url(#pf663145099)" style="fill: none; stroke: #cccccc; stroke-width: 0.8; stroke-linecap: round"/>
     </g>
     <g id="line2d_190"/>
     <g id="text_46">
      <!-- −0.4 -->
      <g style="fill: #262626" transform="translate(687.499531 252.455042) scale(0.1 -0.1)">
       <use xlink:href="#DejaVuSans-c9c"/>
       <use xlink:href="#DejaVuSans-13" transform="translate(83.796875 0)"/>
       <use xlink:href="#DejaVuSans-11" transform="translate(147.421875 0)"/>
       <use xlink:href="#DejaVuSans-17" transform="translate(179.203125 0)"/>
      </g>
     </g>
    </g>
    <g id="ytick_46">
     <g id="line2d_191">
      <path d="M 715.282344 207.892638 
L 993.38 207.892638 
" clip-path="url(#pf663145099)" style="fill: none; stroke: #cccccc; stroke-width: 0.8; stroke-linecap: round"/>
     </g>
     <g id="line2d_192"/>
     <g id="text_47">
      <!-- −0.2 -->
      <g style="fill: #262626" transform="translate(687.499531 211.691466) scale(0.1 -0.1)">
       <use xlink:href="#DejaVuSans-c9c"/>
       <use xlink:href="#DejaVuSans-13" transform="translate(83.796875 0)"/>
       <use xlink:href="#DejaVuSans-11" transform="translate(147.421875 0)"/>
       <use xlink:href="#DejaVuSans-15" transform="translate(179.203125 0)"/>
      </g>
     </g>
    </g>
    <g id="ytick_47">
     <g id="line2d_193">
      <path d="M 715.282344 167.129062 
L 993.38 167.129062 
" clip-path="url(#pf663145099)" style="fill: none; stroke: #cccccc; stroke-width: 0.8; stroke-linecap: round"/>
     </g>
     <g id="line2d_194"/>
     <g id="text_48">
      <!-- 0.0 -->
      <g style="fill: #262626" transform="translate(695.879219 170.927891) scale(0.1 -0.1)">
       <use xlink:href="#DejaVuSans-13"/>
       <use xlink:href="#DejaVuSans-11" transform="translate(63.625 0)"/>
       <use xlink:href="#DejaVuSans-13" transform="translate(95.40625 0)"/>
      </g>
     </g>
    </g>
    <g id="ytick_48">
     <g id="line2d_195">
      <path d="M 715.282344 126.365487 
L 993.38 126.365487 
" clip-path="url(#pf663145099)" style="fill: none; stroke: #cccccc; stroke-width: 0.8; stroke-linecap: round"/>
     </g>
     <g id="line2d_196"/>
     <g id="text_49">
      <!-- 0.2 -->
      <g style="fill: #262626" transform="translate(695.879219 130.164315) scale(0.1 -0.1)">
       <use xlink:href="#DejaVuSans-13"/>
       <use xlink:href="#DejaVuSans-11" transform="translate(63.625 0)"/>
       <use xlink:href="#DejaVuSans-15" transform="translate(95.40625 0)"/>
      </g>
     </g>
    </g>
    <g id="ytick_49">
     <g id="line2d_197">
      <path d="M 715.282344 85.601911 
L 993.38 85.601911 
" clip-path="url(#pf663145099)" style="fill: none; stroke: #cccccc; stroke-width: 0.8; stroke-linecap: round"/>
     </g>
     <g id="line2d_198"/>
     <g id="text_50">
      <!-- 0.4 -->
      <g style="fill: #262626" transform="translate(695.879219 89.40074) scale(0.1 -0.1)">
       <use xlink:href="#DejaVuSans-13"/>
       <use xlink:href="#DejaVuSans-11" transform="translate(63.625 0)"/>
       <use xlink:href="#DejaVuSans-17" transform="translate(95.40625 0)"/>
      </g>
     </g>
    </g>
    <g id="text_51">
     <!-- Fx ($10^{-21}$ N) -->
     <g style="fill: #262626" transform="translate(681.097188 197.729062) rotate(-90) scale(0.1 -0.1)">
      <defs>
       <path id="DejaVuSans-29" d="M 628 4666 
L 3309 4666 
L 3309 4134 
L 1259 4134 
L 1259 2759 
L 3109 2759 
L 3109 2228 
L 1259 2228 
L 1259 0 
L 628 0 
L 628 4666 
z
" transform="scale(0.015625)"/>
       <path id="DejaVuSans-31" d="M 628 4666 
L 1478 4666 
L 3547 763 
L 3547 4666 
L 4159 4666 
L 4159 0 
L 3309 0 
L 1241 3903 
L 1241 0 
L 628 0 
L 628 4666 
z
" transform="scale(0.015625)"/>
      </defs>
      <use xlink:href="#DejaVuSans-29" transform="translate(0 0.746875)"/>
      <use xlink:href="#DejaVuSans-5b" transform="translate(57.519531 0.746875)"/>
      <use xlink:href="#DejaVuSans-3" transform="translate(116.699219 0.746875)"/>
      <use xlink:href="#DejaVuSans-b" transform="translate(148.486328 0.746875)"/>
      <use xlink:href="#DejaVuSans-14" transform="translate(187.5 0.746875)"/>
      <use xlink:href="#DejaVuSans-13" transform="translate(251.123047 0.746875)"/>
      <use xlink:href="#DejaVuSans-c9c" transform="translate(315.703125 42.046875) scale(0.7)"/>
      <use xlink:href="#DejaVuSans-15" transform="translate(374.355469 42.046875) scale(0.7)"/>
      <use xlink:href="#DejaVuSans-14" transform="translate(418.891602 42.046875) scale(0.7)"/>
      <use xlink:href="#DejaVuSans-3" transform="translate(466.162109 0.746875)"/>
      <use xlink:href="#DejaVuSans-31" transform="translate(497.949219 0.746875)"/>
      <use xlink:href="#DejaVuSans-c" transform="translate(572.753906 0.746875)"/>
     </g>
    </g>
   </g>
   <g id="line2d_199">
    <path d="M 727.923146 163.85362 
L 781.014517 165.319981 
L 868.236055 167.464156 
L 955.457592 169.680561 
L 980.739197 170.404505 
L 980.739197 170.404505 
" clip-path="url(#pf663145099)" style="fill: none; stroke: #1f77b4; stroke-width: 1.5; stroke-linecap: round"/>
   </g>
   <g id="line2d_200">
    <path d="M 727.923146 138.540644 
L 746.88435 143.22916 
L 768.373714 148.304001 
L 792.391239 153.742656 
L 822.729165 160.371141 
L 927.647827 183.065449 
L 951.665352 188.612479 
L 971.890636 193.502095 
L 980.739197 195.717481 
L 980.739197 195.717481 
" clip-path="url(#pf663145099)" style="fill: none; stroke: #ff7f0e; stroke-width: 1.5; stroke-linecap: round"/>
   </g>
   <g id="line2d_201">
    <path d="M 727.923146 60.577926 
L 775.958196 101.240737 
L 834.105888 150.155194 
L 942.81679 241.555049 
L 980.739197 273.680199 
L 980.739197 273.680199 
" clip-path="url(#pf663145099)" style="fill: none; stroke: #2ca02c; stroke-width: 1.5; stroke-linecap: round"/>
   </g>
   <g id="line2d_202">
    <path d="M 727.923146 119.978026 
L 772.165955 136.339263 
L 830.313647 158.101145 
L 946.609031 201.677904 
L 980.739197 214.280099 
L 980.739197 214.280099 
" clip-path="url(#pf663145099)" style="fill: none; stroke: #d62728; stroke-width: 1.5; stroke-linecap: round"/>
   </g>
   <g id="patch_13">
    <path d="M 715.282344 284.335312 
L 715.282344 49.922812 
" style="fill: none; stroke: #cccccc; stroke-linejoin: miter; stroke-linecap: square"/>
   </g>
   <g id="patch_14">
    <path d="M 993.38 284.335312 
L 993.38 49.922812 
" style="fill: none; stroke: #cccccc; stroke-linejoin: miter; stroke-linecap: square"/>
   </g>
   <g id="patch_15">
    <path d="M 715.282344 284.335312 
L 993.38 284.335312 
" style="fill: none; stroke: #cccccc; stroke-linejoin: miter; stroke-linecap: square"/>
   </g>
   <g id="patch_16">
    <path d="M 715.282344 49.922812 
L 993.38 49.922812 
" style="fill: none; stroke: #cccccc; stroke-linejoin: miter; stroke-linecap: square"/>
   </g>
   <g id="text_52">
    <!-- Power broadens F(v) -->
    <g style="fill: #262626" transform="translate(792.772109 43.922812) scale(0.12 -0.12)">
     <defs>
      <path id="DejaVuSans-33" d="M 1259 4147 
L 1259 2394 
L 2053 2394 
Q 2494 2394 2734 2622 
Q 2975 2850 2975 3272 
Q 2975 3691 2734 3919 
Q 2494 4147 2053 4147 
L 1259 4147 
z
M 628 4666 
L 2053 4666 
Q 2838 4666 3239 4311 
Q 3641 3956 3641 3272 
Q 3641 2581 3239 2228 
Q 2838 1875 2053 1875 
L 1259 1875 
L 1259 0 
L 628 0 
L 628 4666 
z
" transform="scale(0.015625)"/>
      <path id="DejaVuSans-5a" d="M 269 3500 
L 844 3500 
L 1563 769 
L 2278 3500 
L 2956 3500 
L 3675 769 
L 4391 3500 
L 4966 3500 
L 4050 0 
L 3372 0 
L 2619 2869 
L 1863 0 
L 1184 0 
L 269 3500 
z
" transform="scale(0.015625)"/>
     </defs>
     <use xlink:href="#DejaVuSans-33"/>
     <use xlink:href="#DejaVuSans-52" transform="translate(56.734375 0)"/>
     <use xlink:href="#DejaVuSans-5a" transform="translate(117.921875 0)"/>
     <use xlink:href="#DejaVuSans-48" transform="translate(199.703125 0)"/>
     <use xlink:href="#DejaVuSans-55" transform="translate(261.234375 0)"/>
     <use xlink:href="#DejaVuSans-3" transform="translate(302.34375 0)"/>
     <use xlink:href="#DejaVuSans-45" transform="translate(334.125 0)"/>
     <use xlink:href="#DejaVuSans-55" transform="translate(397.609375 0)"/>
     <use xlink:href="#DejaVuSans-52" transform="translate(436.515625 0)"/>
     <use xlink:href="#DejaVuSans-44" transform="translate(497.703125 0)"/>
     <use xlink:href="#DejaVuSans-47" transform="translate(558.984375 0)"/>
     <use xlink:href="#DejaVuSans-48" transform="translate(622.46875 0)"/>
     <use xlink:href="#DejaVuSans-51" transform="translate(684 0)"/>
     <use xlink:href="#DejaVuSans-56" transform="translate(747.375 0)"/>
     <use xlink:href="#DejaVuSans-3" transform="translate(799.46875 0)"/>
     <use xlink:href="#DejaVuSans-29" transform="translate(831.25 0)"/>
     <use xlink:href="#DejaVuSans-b" transform="translate(888.765625 0)"/>
     <use xlink:href="#DejaVuSans-59" transform="translate(927.78125 0)"/>
     <use xlink:href="#DejaVuSans-c" transform="translate(986.96875 0)"/>
    </g>
   </g>
   <g id="legend_3">
    <g id="line2d_203">
     <path d="M 920.525313 63.02125 
L 930.525313 63.02125 
L 940.525313 63.02125 
" style="fill: none; stroke: #1f77b4; stroke-width: 1.5; stroke-linecap: round"/>
    </g>
    <g id="text_53">
     <!-- s=0.02 -->
     <g style="fill: #262626" transform="translate(948.525313 66.52125) scale(0.1 -0.1)">
      <use xlink:href="#DejaVuSans-56"/>
      <use xlink:href="#DejaVuSans-20" transform="translate(52.09375 0)"/>
      <use xlink:href="#DejaVuSans-13" transform="translate(135.890625 0)"/>
      <use xlink:href="#DejaVuSans-11" transform="translate(199.515625 0)"/>
      <use xlink:href="#DejaVuSans-13" transform="translate(231.296875 0)"/>
      <use xlink:href="#DejaVuSans-15" transform="translate(294.921875 0)"/>
     </g>
    </g>
    <g id="line2d_204">
     <path d="M 920.525313 78.022031 
L 930.525313 78.022031 
L 940.525313 78.022031 
" style="fill: none; stroke: #ff7f0e; stroke-width: 1.5; stroke-linecap: round"/>
    </g>
    <g id="text_54">
     <!-- s=0.2 -->
     <g style="fill: #262626" transform="translate(948.525313 81.522031) scale(0.1 -0.1)">
      <use xlink:href="#DejaVuSans-56"/>
      <use xlink:href="#DejaVuSans-20" transform="translate(52.09375 0)"/>
      <use xlink:href="#DejaVuSans-13" transform="translate(135.890625 0)"/>
      <use xlink:href="#DejaVuSans-11" transform="translate(199.515625 0)"/>
      <use xlink:href="#DejaVuSans-15" transform="translate(231.296875 0)"/>
     </g>
    </g>
    <g id="line2d_205">
     <path d="M 920.525313 93.022812 
L 930.525313 93.022812 
L 940.525313 93.022812 
" style="fill: none; stroke: #2ca02c; stroke-width: 1.5; stroke-linecap: round"/>
    </g>
    <g id="text_55">
     <!-- s=2 -->
     <g style="fill: #262626" transform="translate(948.525313 96.522812) scale(0.1 -0.1)">
      <use xlink:href="#DejaVuSans-56"/>
      <use xlink:href="#DejaVuSans-20" transform="translate(52.09375 0)"/>
      <use xlink:href="#DejaVuSans-15" transform="translate(135.890625 0)"/>
     </g>
    </g>
    <g id="line2d_206">
     <path d="M 920.525313 108.023594 
L 930.525313 108.023594 
L 940.525313 108.023594 
" style="fill: none; stroke: #d62728; stroke-width: 1.5; stroke-linecap: round"/>
    </g>
    <g id="text_56">
     <!-- s=20 -->
     <g style="fill: #262626" transform="translate(948.525313 111.523594) scale(0.1 -0.1)">
      <use xlink:href="#DejaVuSans-56"/>
      <use xlink:href="#DejaVuSans-20" transform="translate(52.09375 0)"/>
      <use xlink:href="#DejaVuSans-15" transform="translate(135.890625 0)"/>
      <use xlink:href="#DejaVuSans-13" transform="translate(199.515625 0)"/>
     </g>
    </g>
   </g>
  </g>
  <g id="text_57">
   <!-- More scattering is not necessarily more damping -->
   <g style="fill: #262626" transform="translate(353.278437 16.318125) scale(0.12 -0.12)">
    <use xlink:href="#DejaVuSans-30"/>
    <use xlink:href="#DejaVuSans-52" transform="translate(86.28125 0)"/>
    <use xlink:href="#DejaVuSans-55" transform="translate(147.46875 0)"/>
    <use xlink:href="#DejaVuSans-48" transform="translate(186.375 0)"/>
    <use xlink:href="#DejaVuSans-3" transform="translate(247.90625 0)"/>
    <use xlink:href="#DejaVuSans-56" transform="translate(279.6875 0)"/>
    <use xlink:href="#DejaVuSans-46" transform="translate(331.78125 0)"/>
    <use xlink:href="#DejaVuSans-44" transform="translate(386.765625 0)"/>
    <use xlink:href="#DejaVuSans-57" transform="translate(448.046875 0)"/>
    <use xlink:href="#DejaVuSans-57" transform="translate(487.25 0)"/>
    <use xlink:href="#DejaVuSans-48" transform="translate(526.453125 0)"/>
    <use xlink:href="#DejaVuSans-55" transform="translate(587.984375 0)"/>
    <use xlink:href="#DejaVuSans-4c" transform="translate(629.09375 0)"/>
    <use xlink:href="#DejaVuSans-51" transform="translate(656.875 0)"/>
    <use xlink:href="#DejaVuSans-4a" transform="translate(720.25 0)"/>
    <use xlink:href="#DejaVuSans-3" transform="translate(783.734375 0)"/>
    <use xlink:href="#DejaVuSans-4c" transform="translate(815.515625 0)"/>
    <use xlink:href="#DejaVuSans-56" transform="translate(843.296875 0)"/>
    <use xlink:href="#DejaVuSans-3" transform="translate(895.390625 0)"/>
    <use xlink:href="#DejaVuSans-51" transform="translate(927.171875 0)"/>
    <use xlink:href="#DejaVuSans-52" transform="translate(990.546875 0)"/>
    <use xlink:href="#DejaVuSans-57" transform="translate(1051.734375 0)"/>
    <use xlink:href="#DejaVuSans-3" transform="translate(1090.9375 0)"/>
    <use xlink:href="#DejaVuSans-51" transform="translate(1122.71875 0)"/>
    <use xlink:href="#DejaVuSans-48" transform="translate(1186.09375 0)"/>
    <use xlink:href="#DejaVuSans-46" transform="translate(1247.625 0)"/>
    <use xlink:href="#DejaVuSans-48" transform="translate(1302.609375 0)"/>
    <use xlink:href="#DejaVuSans-56" transform="translate(1364.140625 0)"/>
    <use xlink:href="#DejaVuSans-56" transform="translate(1416.234375 0)"/>
    <use xlink:href="#DejaVuSans-44" transform="translate(1468.328125 0)"/>
    <use xlink:href="#DejaVuSans-55" transform="translate(1529.609375 0)"/>
    <use xlink:href="#DejaVuSans-4c" transform="translate(1570.71875 0)"/>
    <use xlink:href="#DejaVuSans-4f" transform="translate(1598.5 0)"/>
    <use xlink:href="#DejaVuSans-5c" transform="translate(1626.28125 0)"/>
    <use xlink:href="#DejaVuSans-3" transform="translate(1685.46875 0)"/>
    <use xlink:href="#DejaVuSans-50" transform="translate(1717.25 0)"/>
    <use xlink:href="#DejaVuSans-52" transform="translate(1814.65625 0)"/>
    <use xlink:href="#DejaVuSans-55" transform="translate(1875.84375 0)"/>
    <use xlink:href="#DejaVuSans-48" transform="translate(1914.75 0)"/>
    <use xlink:href="#DejaVuSans-3" transform="translate(1976.28125 0)"/>
    <use xlink:href="#DejaVuSans-47" transform="translate(2008.0625 0)"/>
    <use xlink:href="#DejaVuSans-44" transform="translate(2071.546875 0)"/>
    <use xlink:href="#DejaVuSans-50" transform="translate(2132.828125 0)"/>
    <use xlink:href="#DejaVuSans-53" transform="translate(2230.234375 0)"/>
    <use xlink:href="#DejaVuSans-4c" transform="translate(2293.71875 0)"/>
    <use xlink:href="#DejaVuSans-51" transform="translate(2321.5 0)"/>
    <use xlink:href="#DejaVuSans-4a" transform="translate(2384.875 0)"/>
   </g>
  </g>
 </g>
 <defs>
  <clipPath id="pd754223ec3">
   <rect x="50.002344" y="49.922812" width="278.097656" height="234.4125"/>
  </clipPath>
  <clipPath id="pa1f320f6b2">
   <rect x="382.642344" y="49.922812" width="278.097656" height="234.4125"/>
  </clipPath>
  <clipPath id="pf663145099">
   <rect x="715.282344" y="49.922812" width="278.097656" height="234.4125"/>
  </clipPath>
 </defs>
</svg>
